<svg xmlns="http://www.w3.org/2000/svg" width="65.969" height="60.031" viewBox="0 0 65.969 60.031">
  <defs>
    <style>
      .cls-1 {
        fill: #26262d;
        fill-rule: evenodd;
      }
    </style>
  </defs>
  <path id="case" class="cls-1" d="M472.922,179.985H457.228a4.423,4.423,0,0,0-4.4,4.44v2.04a1.289,1.289,0,1,0,2.577,0v-2.04a1.83,1.83,0,0,1,1.819-1.837h15.694a1.83,1.83,0,0,1,1.818,1.837v2.04a1.289,1.289,0,1,0,2.577,0v-2.04a4.422,4.422,0,0,0-4.395-4.44h0Zm0,0,18.77,10.514H438.3a6.329,6.329,0,0,0-6.291,6.352v11.555a1.3,1.3,0,0,0,.924,1.248l0.785,0.234v27.259a2.86,2.86,0,0,0,2.843,2.871h56.869a2.86,2.86,0,0,0,2.842-2.871V210.08l0.778-.227a1.3,1.3,0,0,0,.931-1.25V196.851a6.329,6.329,0,0,0-6.291-6.352h0Zm-48.183,46.916h-6.946a0.268,0.268,0,0,1-.266-0.268v-7.015H440a3.527,3.527,0,0,1,3.506,3.541v3.742Zm50.188-.268a0.267,0.267,0,0,1-.265.268h-6.947v-3.742a3.528,3.528,0,0,1,3.506-3.541H493.7v7.015Zm0-9.618h-3.706a6.121,6.121,0,0,0-6.083,6.144v3.742H446.086v-3.742A6.121,6.121,0,0,0,440,227.529H436.3V210.655l22.75,6.777v4.181a1.3,1.3,0,0,0,1.289,1.3h9.323a1.294,1.294,0,0,0,1.288-1.3v-4.147l22.75-6.634v16.7Zm-32.073-7.217v-6.341h6.746v6.341h-6.746Zm33.782-12.688-24.459,7.133v-2.088a1.294,1.294,0,0,0-1.288-1.3h-9.323a1.3,1.3,0,0,0-1.289,1.3v2.049l-24.459-7.284V196.851a3.736,3.736,0,0,1,3.714-3.75h5.207v4.5a1.289,1.289,0,1,0,2.577,0v-4.5h37.356v4.5a1.289,1.289,0,1,0,2.577,0v-4.5h5.673a3.737,3.737,0,0,1,3.714,3.75v10.773Zm0,0-9.387-5a1.289,1.289,0,1,1-1.288-1.3,1.3,1.3,0,0,1,1.288,1.3h0Zm0,0-39.934,0a1.289,1.289,0,1,1-1.288-1.3,1.3,1.3,0,0,1,1.288,1.3h0Zm0,0" transform="translate(-432 -180)"/>
</svg>
