<svg xmlns="http://www.w3.org/2000/svg" width="28" height="44" viewBox="0 0 28 44">
  <defs>
    <style>
      .cls-1 {
        fill: #5a89ff;
        fill-rule: evenodd;
      }
    </style>
  </defs>
  <path id="certificate" class="cls-1" d="M1097.21,257.953V265l2.21-2.156,2.21,2.156v-7.045A5.882,5.882,0,0,1,1097.21,257.953Zm2.21-8.2a3.6,3.6,0,1,1-3.68,3.594A3.633,3.633,0,0,1,1099.42,249.757Zm2.21-18.693H1109L1100.16,221v8.628A1.455,1.455,0,0,0,1101.63,231.064Zm-2.95-1.438V221h-14.73a2.924,2.924,0,0,0-2.95,2.876v33.072a2.924,2.924,0,0,0,2.95,2.876h11.79V256.8a4.943,4.943,0,0,1-1.48-3.452,5.162,5.162,0,0,1,10.32,0,4.721,4.721,0,0,1-1.47,3.452v3.019h2.94a2.924,2.924,0,0,0,2.95-2.876V232.5h-7.37A2.924,2.924,0,0,1,1098.68,229.626Zm-13.26-2.876h10.32v1.438h-10.32V226.75Zm0,4.314h10.32V232.5h-10.32v-1.438Zm19.16,14.378h-19.16v-1.436h19.16v1.436Zm0-4.313h-19.16v-1.438h19.16v1.438Zm0-4.314h-19.16v-1.438h19.16v1.438Z" transform="translate(-1081 -221)"/>
</svg>
