<svg xmlns="http://www.w3.org/2000/svg" width="65" height="71" viewBox="0 0 65 71">
  <defs>
    <style>
      .cls-1 {
        fill: #26262d;
        fill-rule: evenodd;
      }
    </style>
  </defs>
  <path id="chat" class="cls-1" d="M1061.1,676a11.733,11.733,0,0,1-3.63-.492,2.1,2.1,0,0,1-1.31-2.576l3.24-10.86a30.537,30.537,0,0,1-15.4-26.231c0-17.005,14.58-30.841,32.5-30.841s32.5,13.836,32.5,30.841c0,16.633-13.61,30.086-31.07,30.8a1.927,1.927,0,0,1-.83-0.013l-0.1-.023a2.09,2.09,0,0,1,.39-4.124c15.4-.449,27.47-12.151,27.47-26.643,0-14.7-12.72-26.663-28.36-26.663s-28.36,11.961-28.36,26.663a26.478,26.478,0,0,0,14.68,23.359,2.084,2.084,0,0,1,1.06,2.348,1.9,1.9,0,0,1-.07.23l-3,10.06c2.13,0.042,5.8-.479,10.14-3.755a2.061,2.061,0,0,1,2.9.423,2.092,2.092,0,0,1-.42,2.923C1068.46,675.178,1064.03,676,1061.1,676Zm15.4-48.637h-18.36a1.671,1.671,0,0,1,0-3.341h18.36A1.671,1.671,0,0,1,1076.5,627.361Zm0,10.329h-18.36a1.671,1.671,0,0,1,0-3.342h18.36A1.671,1.671,0,0,1,1076.5,637.69Zm0,10.328h-18.36a1.671,1.671,0,0,1,0-3.341h18.36A1.671,1.671,0,0,1,1076.5,648.018Zm9.93-17.316a1.59,1.59,0,0,1-.13.655,1.82,1.82,0,0,1-.36.534,1.581,1.581,0,0,1-.52.36,1.638,1.638,0,0,1-.65.127,1.585,1.585,0,0,1-1.18-.478,1.658,1.658,0,0,1-.47-1.2,7.575,7.575,0,0,1,.61-3,7.972,7.972,0,0,1,1.66-2.459,7.686,7.686,0,0,1,2.44-1.661,7.275,7.275,0,0,1,2.96-.607,7.178,7.178,0,0,1,2.96.623,7.982,7.982,0,0,1,4.09,4.136,7.5,7.5,0,0,1,.61,2.97,7.628,7.628,0,0,1-2.27,5.494l-2.48,2.317a3.887,3.887,0,0,0-1.27,2.794,1.668,1.668,0,0,1-2.83,1.19,1.6,1.6,0,0,1-.48-1.19,7.155,7.155,0,0,1,2.27-5.159l2.48-2.332a4.339,4.339,0,0,0,1.27-3.114,4.226,4.226,0,0,0-.35-1.692,4.446,4.446,0,0,0-.94-1.4,4.548,4.548,0,0,0-1.39-.95,4.033,4.033,0,0,0-1.67-.351,4.233,4.233,0,0,0-1.7.342,4.42,4.42,0,0,0-2.32,2.325A4.482,4.482,0,0,0,1086.43,630.7Zm6.6,15.817a2.247,2.247,0,0,1-3.84,1.605,2.308,2.308,0,0,1,0-3.211A2.245,2.245,0,0,1,1093.03,646.519Z" transform="translate(-1044 -605)"/>
</svg>
