<svg xmlns="http://www.w3.org/2000/svg" width="40" height="73.969" viewBox="0 0 40 73.969">
  <defs>
    <style>
      .cls-1 {
        fill: #26262d;
        fill-rule: evenodd;
      }
    </style>
  </defs>
  <path id="dollar" class="cls-1" d="M383.87,120.52a0.153,0.153,0,0,1-.021-0.014,18.673,18.673,0,0,0-4.862-2.428,34.061,34.061,0,0,0-7.056-1.161c-2.914-.248-5-0.482-6.195-0.7a5.09,5.09,0,0,1-2.248-1.087,2.126,2.126,0,0,1-.754-1.806v-1.69c0-2.917.59-3.858,0.843-4.127,0.3-.318,1.176-0.851,3.667-0.851h2.729c2.623,0,3.476.543,3.719,0.776,0.3,0.284.793,1.1,0.793,3.357v0.591a3,3,0,0,0,3.249,3.22h7.247a3,3,0,0,0,3.249-3.22v-1.606c0-4.637-1.309-8.381-3.888-11.127a13.533,13.533,0,0,0-9.329-4.137V89.24a3,3,0,0,0-3.249-3.22h-5.116a3,3,0,0,0-3.248,3.22v5.232h-0.013a1.445,1.445,0,1,0,0,2.889h1.471a1.45,1.45,0,0,0,1.457-1.445V89.24a0.24,0.24,0,0,1,.333-0.33h5.116a0.24,0.24,0,0,1,.334.33v6.677a1.451,1.451,0,0,0,1.457,1.445h0.171c3.646,0,6.421,1.066,8.483,3.258s3.105,5.275,3.105,9.158v1.606a1.1,1.1,0,0,1-.031.3,1.166,1.166,0,0,1-.3.031h-7.247a1.137,1.137,0,0,1-.3-0.031,1.166,1.166,0,0,1-.03-0.3v-0.591c0-2.572-.55-4.349-1.683-5.435-1.117-1.069-3-1.589-5.744-1.589h-2.729c-2.778,0-4.675.579-5.8,1.769-1.1,1.162-1.629,3.157-1.629,6.1v1.69a5.033,5.033,0,0,0,1.8,4.025,8.07,8.07,0,0,0,3.535,1.7l0.038,0.008c1.3,0.235,3.424.475,6.489,0.736a31.99,31.99,0,0,1,6.415,1.034,15.8,15.8,0,0,1,4.082,2.045c2.589,1.848,3.9,5.318,3.9,10.315V136.4c0,4.031-1.071,7.04-3.276,9.2s-5.179,3.217-9.08,3.217h-0.171a1.45,1.45,0,0,0-1.457,1.444v6.508a1.166,1.166,0,0,1-.031.3,1.244,1.244,0,0,1-.3.03h-5.115a1.258,1.258,0,0,1-.3-0.03,1.166,1.166,0,0,1-.031-0.3v-6.508a1.45,1.45,0,0,0-1.457-1.444h-0.6c-3.948,0-6.912-1.061-9.063-3.243s-3.208-5.19-3.208-9.174v-1.606a1.156,1.156,0,0,1,.031-0.3,1.179,1.179,0,0,1,.3-0.031h7.248a1.173,1.173,0,0,1,.3.031,1.156,1.156,0,0,1,.031.3v0.592c0,2.584.57,4.367,1.742,5.451,1.142,1.058,3,1.572,5.685,1.572h3.41c2.633,0,4.485-.547,5.662-1.674s1.765-3.028,1.765-5.772V133.7a5.666,5.666,0,0,0-1.743-4.353,8.179,8.179,0,0,0-3.624-1.95l-0.039-.01a61.7,61.7,0,0,0-6.189-.788,38.677,38.677,0,0,1-6.428-1.007,15.068,15.068,0,0,1-4.114-1.968l-0.02-.014c-2.725-1.735-4.106-5.335-4.106-10.7v-3.127a14.2,14.2,0,0,1,1.753-7.409,1.438,1.438,0,0,0-.5-1.983,1.465,1.465,0,0,0-2,.5,16.994,16.994,0,0,0-2.167,8.895V112.9c0,6.407,1.828,10.823,5.433,13.126a17.987,17.987,0,0,0,4.915,2.335,40.781,40.781,0,0,0,6.958,1.106c2.891,0.274,4.847.519,5.815,0.729a5.235,5.235,0,0,1,2.325,1.255,2.88,2.88,0,0,1,.816,2.241v1.267c0,2.482-.55,3.381-0.877,3.695-0.41.393-1.374,0.862-3.634,0.862h-3.41c-2.469,0-3.375-.5-3.7-0.8-0.305-.282-0.816-1.09-0.816-3.339v-0.591a3,3,0,0,0-3.248-3.22h-7.248a3,3,0,0,0-3.248,3.22V136.4c0,4.71,1.359,8.476,4.039,11.194,2.522,2.56,5.98,3.936,10.286,4.1v5.079a3,3,0,0,0,3.248,3.22h5.116a3,3,0,0,0,3.249-3.22v-5.1a14.79,14.79,0,0,0,9.841-4.015C387.6,144.962,389,141.176,389,136.4v-3.211c0-5.987-1.725-10.249-5.127-12.669h0Zm0,0M358.643,97.257a1.458,1.458,0,1,1-1.458-1.445,1.452,1.452,0,0,1,1.458,1.445h0Zm0,0" transform="translate(-349 -86.031)"/>
</svg>
