<svg xmlns="http://www.w3.org/2000/svg" width="103.469" height="104.531" viewBox="0 0 103.469 104.531">
  <defs>
    <style>
      .cls-1 {
        fill: #26262d;
        fill-rule: evenodd;
      }
    </style>
  </defs>
  <path id="home" class="cls-1" d="M411.609,492.389c-0.192-2.32-1.9-4.124-4.4-6.12a15.2,15.2,0,0,0-8.951-3.025c-3.218,0-7.883,1.167-11.845,6.718a19.086,19.086,0,0,1-11.658,7.092,8.39,8.39,0,0,0,.544-3.17c0.031-7.721-6.119-13.523-14.623-13.561l-30.359.025a14.882,14.882,0,0,0-8.018,2.364V478.76H308.128v40.973H322.3v-4.354a11.158,11.158,0,0,1,1.273.8,21.959,21.959,0,0,0,10.076,3h27.89a64.8,64.8,0,0,0,46.627-20.133C409.962,497.049,411.823,494.986,411.609,492.389Zm-94.058-4.578H312.6v-4.956h4.953v4.956h0Zm86.936,7.913a59.811,59.811,0,0,1-42.952,18.5h-27.89c-4.716,0-9.794-3.69-9.84-3.726a2.476,2.476,0,0,0-1.474-.484c-0.011,0-.023,0-0.035,0V488.185a2.442,2.442,0,0,0,1.53-.487l0.541-.408A9.869,9.869,0,0,1,330.3,485.3l30.347-.027c4.842,0.021,9.719,2.8,9.693,8.587,0,3.34-2.226,3.512-2.345,3.541H345.752a2.477,2.477,0,0,0,0,4.953h23.61l1.315,0a24.819,24.819,0,0,0,19.673-9.388c0.021-.029.045-0.059,0.064-0.088,2.2-3.107,4.843-4.682,7.841-4.682a10.267,10.267,0,0,1,5.865,1.948c2.481,1.977,2.55,2.625,2.552,2.651C406.68,493.292,405.086,495.059,404.487,495.724ZM333.312,443.73v32.963h7.149V438.9L362.282,423.9l21.335,14.985v46.48c1.822-1.508,3.627-3.035,5.37-4.637,0.6-.551,1.192-1.11,1.779-1.671V443.344l4.269,2.921,4.035-5.9L364.333,416.6l-2.007-1.409-2.045,1.407-16.05,10.99v-5.594h-9v11.758l-9.367,6.415,4.039,5.9Z" transform="translate(-308.125 -415.188)"/>
</svg>
