<svg xmlns="http://www.w3.org/2000/svg" width="23.468" height="23.406" viewBox="0 0 23.468 23.406">
  <defs>
    <style>
      .cls-1 {
        fill-rule: evenodd;
      }
    </style>
  </defs>
  <path id="instagram" class="cls-1" d="M643.325,132.708h-8.8a7.329,7.329,0,0,0-7.337,7.319v8.782a7.329,7.329,0,0,0,7.337,7.318h8.8a7.329,7.329,0,0,0,7.337-7.318v-8.782A7.329,7.329,0,0,0,643.325,132.708Zm5.136,16.1a5.135,5.135,0,0,1-5.136,5.122h-8.8a5.134,5.134,0,0,1-5.136-5.122v-8.782a5.135,5.135,0,0,1,5.136-5.123h8.8a5.135,5.135,0,0,1,5.136,5.123v8.782Zm-9.147-9.855a5.855,5.855,0,1,0,5.87,5.854,5.863,5.863,0,0,0-5.87-5.854m0,9.513a3.659,3.659,0,1,1,3.668-3.659,3.668,3.668,0,0,1-3.668,3.659m5.87-11.075a0.781,0.781,0,1,1-.783.781,0.782,0.782,0,0,1,.783-0.781" transform="translate(-627.188 -132.719)"/>
</svg>
