<svg xmlns="http://www.w3.org/2000/svg" width="32.031" height="31.625" viewBox="0 0 32.031 31.625">
  <defs>
    <style>
      .cls-1 {
        fill: #5a89ff;
        fill-rule: evenodd;
      }
    </style>
  </defs>
  <path id="instagram_blue" data-name="instagram blue" class="cls-1" d="M907.965,227.387H895.943a9.949,9.949,0,0,0-10.019,9.876v11.849a9.949,9.949,0,0,0,10.019,9.875h12.022a9.949,9.949,0,0,0,10.019-9.875V237.263A9.949,9.949,0,0,0,907.965,227.387Zm7.014,21.725a6.971,6.971,0,0,1-7.014,6.912H895.943a6.971,6.971,0,0,1-7.014-6.912V237.263a6.972,6.972,0,0,1,7.014-6.913h12.022a6.972,6.972,0,0,1,7.014,6.913v11.849Zm-12.491-13.3a7.9,7.9,0,1,0,8.016,7.9,7.957,7.957,0,0,0-8.016-7.9m0,12.836a4.938,4.938,0,1,1,5.009-4.938,4.981,4.981,0,0,1-5.009,4.938m8.016-14.943a1.054,1.054,0,1,1-1.069,1.052,1.061,1.061,0,0,1,1.069-1.052" transform="translate(-885.938 -227.375)"/>
</svg>
