<svg xmlns="http://www.w3.org/2000/svg" width="23" height="27" viewBox="0 0 23 27">
  <defs>
    <style>
      .cls-1 {
        fill: #fff;
        fill-rule: evenodd;
      }
    </style>
  </defs>
  <path id="location_white" data-name="location white" class="cls-1" d="M1223.93,216.693a11.819,11.819,0,0,0-18.86,0,10.449,10.449,0,0,0-1.34,10.046,8.3,8.3,0,0,0,1.67,2.613l8.34,9.315a1.036,1.036,0,0,0,1.52,0l8.34-9.313a8.409,8.409,0,0,0,1.67-2.609A10.458,10.458,0,0,0,1223.93,216.693Zm-9.43.907a5.294,5.294,0,1,0,5.57,5.287A5.441,5.441,0,0,0,1214.5,217.6Zm0,8.685a3.4,3.4,0,1,1,3.58-3.4A3.5,3.5,0,0,1,1214.5,226.285Z" transform="translate(-1203 -212)"/>
</svg>
