<svg xmlns="http://www.w3.org/2000/svg" width="25" height="18.25" viewBox="0 0 25 18.25">
  <defs>
    <style>
      .cls-1 {
        fill: #fff;
        fill-rule: evenodd;
      }
    </style>
  </defs>
  <path id="mail_white" data-name="mail white" class="cls-1" d="M1223.87,154h-18.75a3.152,3.152,0,0,0-3.12,3.176v11.91a3.153,3.153,0,0,0,3.12,3.177h18.75a3.155,3.155,0,0,0,3.13-3.177v-11.91A3.154,3.154,0,0,0,1223.87,154Zm-0.28,5.379-8.6,7.146a0.76,0.76,0,0,1-.98,0l-8.6-7.146a0.809,0.809,0,0,1-.11-1.117,0.774,0.774,0,0,1,1.1-.112l8.1,6.735,8.1-6.735a0.773,0.773,0,0,1,1.1.112A0.809,0.809,0,0,1,1223.59,159.378Z" transform="translate(-1202 -154)"/>
</svg>
