<?xml version="1.0" encoding="utf-8"?>
<!-- Generator: Adobe Illustrator 22.0.1, SVG Export Plug-In . SVG Version: 6.00 Build 0)  -->
<svg version="1.1" id="Слой_1" xmlns="http://www.w3.org/2000/svg" xmlns:xlink="http://www.w3.org/1999/xlink" x="0px" y="0px"
	 viewBox="0 0 25 18.3" style="enable-background:new 0 0 25 18.3;" xml:space="preserve">
<style type="text/css">
	.st0{fill:#5A89FF;}
</style>
<path id="mail_white" class="st0" d="M21.9,0H3.1C1.4,0,0,1.4,0,3.2v11.9c0,1.7,1.4,3.2,3.1,3.2h18.8c1.7,0,3.1-1.4,3.1-3.2V3.2
	C25,1.4,23.6,0,21.9,0z M21.6,5.4L13,12.5c-0.3,0.2-0.7,0.2-1,0L3.4,5.4C3.1,5.1,3,4.6,3.3,4.3c0.3-0.3,0.8-0.4,1.1-0.1c0,0,0,0,0,0
	l8.1,6.7l8.1-6.7c0.3-0.3,0.8-0.2,1.1,0.1c0,0,0,0,0,0C22,4.6,21.9,5.1,21.6,5.4L21.6,5.4z"/>
</svg>
