<svg xmlns="http://www.w3.org/2000/svg" width="24" height="24.406" viewBox="0 0 24 24.406">
  <defs>
    <style>
      .cls-1 {
        fill: #fff;
        fill-rule: evenodd;
      }
    </style>
  </defs>
  <path id="phone_white" data-name="phone white" class="cls-1" d="M1221.92,99.015a1.815,1.815,0,0,0-2.77,0c-0.65.654-1.29,1.307-1.93,1.971a0.374,0.374,0,0,1-.53.1c-0.42-.232-0.87-0.42-1.27-0.675a20.084,20.084,0,0,1-4.84-4.482,11.714,11.714,0,0,1-1.73-2.826,0.414,0.414,0,0,1,.09-0.52c0.65-.637,1.28-1.29,1.92-1.942a1.9,1.9,0,0,0-.01-2.882c-0.5-.52-1.01-1.029-1.51-1.549-0.53-.531-1.04-1.068-1.57-1.594a1.825,1.825,0,0,0-2.77.006c-0.65.653-1.28,1.322-1.94,1.964a3.274,3.274,0,0,0-.99,2.164,9.322,9.322,0,0,0,.7,3.944,23.848,23.848,0,0,0,4.18,7.088,26.028,26.028,0,0,0,8.57,6.822,12.209,12.209,0,0,0,4.74,1.405,3.451,3.451,0,0,0,2.99-1.157c0.55-.631,1.18-1.206,1.77-1.809a1.907,1.907,0,0,0,.01-2.866Q1223.485,100.589,1221.92,99.015Zm4.08-4.568a20.29,20.29,0,0,0-10.67-10.806,0.772,0.772,0,0,0-1.02.45,0.83,0.83,0,0,0,.43,1.062,18.684,18.684,0,0,1,9.84,9.964,0.775,0.775,0,0,0,.71.482,0.76,0.76,0,0,0,.32-0.072A0.839,0.839,0,0,0,1226,94.447ZM1214.33,89.5a11.328,11.328,0,0,1,5.97,6.03,0.759,0.759,0,0,0,.69.465,0.683,0.683,0,0,0,.3-0.07,0.8,0.8,0,0,0,.38-1.04,12.883,12.883,0,0,0-6.77-6.843,0.737,0.737,0,0,0-.98.434A0.8,0.8,0,0,0,1214.33,89.5Z" transform="translate(-1202.06 -83.594)"/>
</svg>
