<?xml version="1.0" encoding="utf-8"?>
<!-- Generator: Adobe Illustrator 22.0.1, SVG Export Plug-In . SVG Version: 6.00 Build 0)  -->
<svg version="1.1" id="Слой_1" xmlns="http://www.w3.org/2000/svg" xmlns:xlink="http://www.w3.org/1999/xlink" x="0px" y="0px"
	 viewBox="0 0 24 24.4" style="enable-background:new 0 0 24 24.4;" xml:space="preserve">
<style type="text/css">
	.st0{fill:#5A89FF;}
</style>
<path id="phone_white" class="st0" d="M19.9,15.4c-0.6-0.8-1.8-0.9-2.6-0.2c-0.1,0.1-0.1,0.1-0.2,0.2c-0.7,0.7-1.3,1.3-1.9,2
	c-0.1,0.2-0.3,0.2-0.5,0.1c0,0,0,0,0,0c-0.4-0.2-0.9-0.4-1.3-0.7c-1.8-1.2-3.5-2.7-4.8-4.5c-0.7-0.9-1.3-1.8-1.7-2.8
	C6.7,9.3,6.7,9.1,6.9,9C7.5,8.4,8.2,7.7,8.8,7C9.6,6.4,9.7,5.2,9,4.4C8.9,4.3,8.9,4.2,8.8,4.2c-0.5-0.5-1-1-1.5-1.5
	C6.7,2.1,6.2,1.5,5.7,1C5.1,0.3,3.9,0.2,3.1,0.8C3.1,0.9,3,1,2.9,1C2.3,1.7,1.7,2.3,1,3C0.4,3.6,0.1,4.3,0,5.2
	C0,6.5,0.2,7.9,0.7,9.1c1,2.6,2.4,5,4.2,7.1c2.3,2.9,5.3,5.2,8.6,6.8c1.5,0.8,3.1,1.3,4.7,1.4c1.1,0.1,2.2-0.3,3-1.2
	c0.6-0.6,1.2-1.2,1.8-1.8c0.8-0.7,0.9-1.9,0.2-2.7c-0.1-0.1-0.1-0.1-0.2-0.2C21.9,17.5,20.9,16.5,19.9,15.4z M23.9,10.9
	C21.9,6,18.1,2.1,13.3,0c-0.4-0.2-0.8,0-1,0.4c0,0,0,0,0,0c-0.2,0.4,0,0.9,0.4,1.1c4.4,1.9,8,5.5,9.8,10c0.1,0.3,0.4,0.5,0.7,0.5
	c0.1,0,0.2,0,0.3-0.1C23.9,11.7,24.1,11.3,23.9,10.9z M12.3,5.9c2.7,1.2,4.8,3.3,6,6c0.1,0.3,0.4,0.5,0.7,0.5c0.1,0,0.2,0,0.3-0.1
	c0.4-0.2,0.6-0.6,0.4-1c-1.3-3.1-3.7-5.5-6.8-6.8c-0.4-0.2-0.8,0-1,0.4c0,0,0,0,0,0C11.7,5.3,11.9,5.7,12.3,5.9z"/>
</svg>
