<svg xmlns="http://www.w3.org/2000/svg" width="41" height="75.969" viewBox="0 0 41 75.969">
  <defs>
    <style>
      .cls-1 {
        fill: #26262d;
        fill-rule: evenodd;
      }
    </style>
  </defs>
  <path id="plant" class="cls-1" d="M317.628,135.1v7.831a9.533,9.533,0,0,1-8.15,9.447,6.038,6.038,0,0,1,.885,3.153v0.96a1.479,1.479,0,0,1-1.473,1.484H292.154a1.479,1.479,0,0,1-1.474-1.484v-0.961a6.034,6.034,0,0,1,.885-3.152,9.534,9.534,0,0,1-8.15-9.448V135.1A4.177,4.177,0,0,1,280.022,131v-0.149a4.168,4.168,0,0,1,4.148-4.177h14.878V124.6h-3.6a8.14,8.14,0,0,1-8.1-8.16v-1.493a1.479,1.479,0,0,1,1.473-1.484h5.073a8.029,8.029,0,0,1,5.155,1.869V111.8a14.828,14.828,0,1,1,2.947,0v6.182a8.026,8.026,0,0,1,5.155-1.87h8.49a1.479,1.479,0,0,1,1.473,1.484v3.878a8.153,8.153,0,0,1-1.857,5.193h1.617a4.167,4.167,0,0,1,4.148,4.177V131A4.177,4.177,0,0,1,317.628,135.1Zm-10.256,19.907a3.062,3.062,0,0,0-2.731-2.534H296.4a3.06,3.06,0,0,0-2.731,2.534h13.7ZM293.893,116.43h-3.6v0.009a5.18,5.18,0,0,0,5.155,5.192h3.6v-0.01A5.179,5.179,0,0,0,293.893,116.43ZM312.4,96.943a11.881,11.881,0,1,0-11.881,11.966A11.937,11.937,0,0,0,312.4,96.943Zm1.764,22.14H307.15A5.179,5.179,0,0,0,302,124.274v2.4h7.017a5.18,5.18,0,0,0,5.155-5.192v-2.395Zm3.908,11.764a1.207,1.207,0,0,0-1.2-1.21h-32.7a1.207,1.207,0,0,0-1.2,1.21V131a1.207,1.207,0,0,0,1.2,1.21h0.718a1.479,1.479,0,0,1,1.474,1.484v9.245a6.558,6.558,0,0,0,6.527,6.574h15.265a6.558,6.558,0,0,0,6.528-6.574v-7.761H297.947a1.484,1.484,0,0,1,0-2.968h18.926a1.207,1.207,0,0,0,1.2-1.21v-0.149Zm-26.367,4.327a1.484,1.484,0,1,1,1.473-1.483A1.479,1.479,0,0,1,291.708,135.174Zm7.34-29.949v-0.9a3.667,3.667,0,0,1-3.357-3.66,1.474,1.474,0,1,1,2.947,0,0.7,0.7,0,0,0,.7.7H301.5a0.915,0.915,0,0,0,.91-0.918v-1.14a0.914,0.914,0,0,0-.91-0.917h-1.947a3.876,3.876,0,0,1-3.857-3.884v-1.14a3.881,3.881,0,0,1,3.357-3.851V88.6a1.474,1.474,0,1,1,2.947,0v0.9a3.667,3.667,0,0,1,3.357,3.66,1.474,1.474,0,1,1-2.947,0,0.7,0.7,0,0,0-.7-0.705h-2.157a0.915,0.915,0,0,0-.91.917v1.139a0.914,0.914,0,0,0,.91.917H301.5a3.875,3.875,0,0,1,3.857,3.885v1.14A3.879,3.879,0,0,1,302,104.3v0.921A1.474,1.474,0,1,1,299.048,105.225Z" transform="translate(-280.031 -82)"/>
</svg>
