<svg xmlns="http://www.w3.org/2000/svg" width="58" height="69" viewBox="0 0 58 69">
  <defs>
    <style>
      .cls-1 {
        fill: #26262d;
        fill-rule: evenodd;
      }
    </style>
  </defs>
  <path id="public" class="cls-1" d="M282.988,261.013H246.573a5.037,5.037,0,0,1-5.015-5.049V213.846h-8.236a3.329,3.329,0,0,1-3.314-3.336V199.286a7.251,7.251,0,0,1,6.914-7.281q0.114,0,.228,0h43.74A7.147,7.147,0,0,1,288,199.11v56.854A5.038,5.038,0,0,1,282.988,261.013Zm-41.431-61.848a4.447,4.447,0,0,0-1.342-3.2,4.392,4.392,0,0,0-3.082-1.265h-0.011l-0.126,0a4.546,4.546,0,0,0-4.311,4.586V210.51a0.639,0.639,0,0,0,.636.64h8.236V199.165Zm43.769,0a4.457,4.457,0,0,0-4.436-4.467H242.684a7.133,7.133,0,0,1,1.551,4.412v56.854a2.349,2.349,0,0,0,2.338,2.354h36.415a2.349,2.349,0,0,0,2.338-2.354v-56.8Zm-5.82,41.737H264.781a1.348,1.348,0,0,1,0-2.7h14.725A1.348,1.348,0,0,1,279.506,240.9Zm0-6.035H251.142a1.348,1.348,0,0,1,0-2.7h28.364A1.348,1.348,0,0,1,279.506,234.867Zm0-5.715H251.142a1.348,1.348,0,0,1,0-2.695h28.364A1.348,1.348,0,0,1,279.506,229.152Zm-0.99-12.1-8.084,4.568a2.912,2.912,0,0,1-2.864,0l-8.084-4.568A2.924,2.924,0,0,1,258,214.505V205.49a2.921,2.921,0,0,1,1.484-2.546l8.084-4.57a2.917,2.917,0,0,1,2.864,0l8.084,4.57A2.921,2.921,0,0,1,280,205.49v9.015A2.924,2.924,0,0,1,278.516,217.052ZM277,206.618a2.206,2.206,0,0,0-1.079-1.91l-5.88-3.427a2.062,2.062,0,0,0-2.082,0l-5.88,3.427a2.206,2.206,0,0,0-1.079,1.91v6.761a2.206,2.206,0,0,0,1.079,1.91l5.88,3.426a2.058,2.058,0,0,0,2.082,0l5.88-3.426a2.206,2.206,0,0,0,1.079-1.91v-6.761Zm-4.864,4.272a4.021,4.021,0,0,1-2.657.809h-1.422v3.136h-2.228v-9.242h3.688a4.3,4.3,0,0,1,1.876.39,2.939,2.939,0,0,1,1.263,1.111,3.027,3.027,0,0,1,.448,1.634A2.676,2.676,0,0,1,272.136,210.89Zm-1.641-3.184a1.236,1.236,0,0,0-.952-0.393h-1.486v2.666h1.46a1.379,1.379,0,0,0,.988-0.324,1.2,1.2,0,0,0,.339-0.914A1.487,1.487,0,0,0,270.5,207.706Zm-8.6,43.005a1.348,1.348,0,1,1-1.338,1.348A1.343,1.343,0,0,1,261.893,250.711Zm4.46,0.375a0.794,0.794,0,0,0,.909-0.1,3.458,3.458,0,0,1,3.478-.657L273,251.157a0.446,0.446,0,0,0,.437-0.153l0.3-.324a3.092,3.092,0,0,1,3.222-.885l2.643,0.827a1.351,1.351,0,0,1,.881,1.688,1.336,1.336,0,0,1-1.676.886l-2.644-.827a0.439,0.439,0,0,0-.463.145l-0.3.323a3.1,3.1,0,0,1-3.2.894c-0.023-.007-0.047-0.015-0.07-0.024l-2.31-.844a0.791,0.791,0,0,0-.8.151,3.469,3.469,0,0,1-3.963.436,1.353,1.353,0,0,1-.529-1.83A1.335,1.335,0,0,1,266.353,251.086Z" transform="translate(-230 -192)"/>
</svg>
