<svg xmlns="http://www.w3.org/2000/svg" width="100.816" height="99.876" viewBox="0 0 100.816 99.876">
  <defs>
    <style>
      .cls-1 {
        fill: #26262d;
        fill-rule: evenodd;
      }
    </style>
  </defs>
  <path id="sack" class="cls-1" d="M1055.57,500.238a67.75,67.75,0,0,0-11.35-31.006c-5.38-7.826-12.84-15.051-22.76-22.054v-9.111l7.46-19.37-4.27,0a3.617,3.617,0,0,1-2.57-1,9.286,9.286,0,0,0-6.02-2.128h-0.01a9.274,9.274,0,0,0-6.01,2.119,3.626,3.626,0,0,1-2.57,1h0a3.628,3.628,0,0,1-2.58-1,9.253,9.253,0,0,0-6.015-2.128h-0.009a9.281,9.281,0,0,0-6.014,2.118,3.612,3.612,0,0,1-2.569,1h0l-4.23,0,7.271,19.429v9.076c-10.071,7.094-17.647,14.309-23.126,22.026a65.809,65.809,0,0,0-11.761,31.043L956.6,515.449h100.8ZM996.3,422.409a3.607,3.607,0,0,1,2.568-1h0a3.588,3.588,0,0,1,2.57,1,9.28,9.28,0,0,0,6.02,2.128h0.01a9.311,9.311,0,0,0,6.02-2.118,3.582,3.582,0,0,1,2.56-1h0.01a3.62,3.62,0,0,1,2.57,1,12.211,12.211,0,0,0,2.07,1.294l-4.2,10.913H998.283L994.2,423.711A12.461,12.461,0,0,0,996.3,422.409Zm19.3,18.085v5.273H999.182v-5.273H1015.6Zm-52.39,69.094,1.042-8.649a60.128,60.128,0,0,1,10.721-28.353c5.246-7.387,12.313-14.063,22.2-20.958H1017.6c20.05,14.011,29.68,28.8,32.15,49.311l1.04,8.649H963.21Zm49.54-25.305h-6.68v-2.589h6.68V478.27h-6.62a6.008,6.008,0,0,1,1.84-4.141,6.787,6.787,0,0,1,4.52-1.337,9.613,9.613,0,0,1,3.58.664l0.92-5.778a20.916,20.916,0,0,0-4.97-.663q-5.865,0-9.44,2.974a11.365,11.365,0,0,0-3.985,8.281H995v3.424h3.533v2.589H995v3.424h3.533a10.907,10.907,0,0,0,3.609,8.281q3.435,3,9.22,3a25.527,25.527,0,0,0,5.63-.644l-0.92-5.775a10.353,10.353,0,0,1-3.77.642q-3.27,0-4.7-1.343a5.777,5.777,0,0,1-1.53-4.156h6.68v-3.424Z" transform="translate(-956.594 -415.562)"/>
</svg>
