<svg xmlns="http://www.w3.org/2000/svg" width="58" height="69" viewBox="0 0 58 69">
  <defs>
    <style>
      .cls-1 {
        fill: #26262d;
        fill-rule: evenodd;
      }
    </style>
  </defs>
  <path id="share" class="cls-1" d="M337.922,190.005c0.076,0,.152,0,0.228,0h43.74A7.146,7.146,0,0,1,389,197.11v56.854a5.038,5.038,0,0,1-5.015,5.049H347.573a5.037,5.037,0,0,1-5.015-5.049V211.846h-8.236a3.329,3.329,0,0,1-3.314-3.336V197.286a7.251,7.251,0,0,1,6.914-7.281h0Zm7.313,7.105v56.854a2.349,2.349,0,0,0,2.338,2.354h36.415a2.349,2.349,0,0,0,2.338-2.354v-56.8a4.457,4.457,0,0,0-4.436-4.467H343.684a7.131,7.131,0,0,1,1.551,4.412h0Zm-11.55,11.4a0.638,0.638,0,0,0,.636.64h8.236V197.165a4.447,4.447,0,0,0-1.342-3.2,4.388,4.388,0,0,0-3.082-1.265h-0.011l-0.126,0a4.546,4.546,0,0,0-4.311,4.586V208.51Zm0,0M371.26,197.9a10.657,10.657,0,1,1-10.584,10.657A10.633,10.633,0,0,1,371.26,197.9h0Zm0,18.618a7.961,7.961,0,1,0-7.907-7.961,7.943,7.943,0,0,0,7.907,7.961h0Zm0,0,0-6.087-19.118,14.026h28.364a1.348,1.348,0,0,1,0,2.7H352.142a1.348,1.348,0,0,1,0-2.7h0Zm0,0,0,5.715h28.364a1.348,1.348,0,0,1,0,2.7H352.142a1.348,1.348,0,0,1,0-2.7h0Zm0,0,13.639,6.035h14.725a1.348,1.348,0,0,1,0,2.7H365.781a1.348,1.348,0,0,1,0-2.7h0Zm0,0-0.245,13.415a1.333,1.333,0,0,1,1.817-.534,0.8,0.8,0,0,0,.909-0.1,3.461,3.461,0,0,1,3.478-.658L374,249.157a0.446,0.446,0,0,0,.437-0.153l0.3-.323a3.09,3.09,0,0,1,3.222-.886l2.643,0.828a1.347,1.347,0,0,1-.795,2.574l-2.644-.828a0.438,0.438,0,0,0-.463.145l-0.3.323a3.1,3.1,0,0,1-3.2.894l-0.07-.023-2.31-.845a0.791,0.791,0,0,0-.8.151,3.469,3.469,0,0,1-3.963.436,1.352,1.352,0,0,1-.529-1.829h0Zm0,0-3.981.438a1.339,1.339,0,1,0,1.338-1.348,1.343,1.343,0,0,0-1.338,1.348h0Zm0,0" transform="translate(-331 -190)"/>
</svg>
