<svg xmlns="http://www.w3.org/2000/svg" width="55" height="83" viewBox="0 0 55 83">
  <defs>
    <style>
      .cls-1 {
        fill: #26262d;
        fill-rule: evenodd;
      }
    </style>
  </defs>
  <path id="support" class="cls-1" d="M331.44,658.051a4.009,4.009,0,0,0,3.641,2.348h3.944a4.009,4.009,0,0,0,3.66-2.391h7.659a15.357,15.357,0,0,1,15.307,15.373v12.975a1.636,1.636,0,1,0,3.272,0V673.381a18.64,18.64,0,0,0-18.579-18.658h-7.669a4.009,4.009,0,0,0-3.65-2.37h-3.944a4.009,4.009,0,0,0-3.624,2.31,11.521,11.521,0,0,1-10.142-10.086,5.63,5.63,0,0,0,3.551-3.462,19.11,19.11,0,0,0,33.268,0A5.592,5.592,0,0,0,369,639.231v-6.614a5.626,5.626,0,0,0-4-5.387,23.534,23.534,0,0,0-46.995,0,5.627,5.627,0,0,0-4,5.387v6.614a5.625,5.625,0,0,0,4.027,5.393,14.838,14.838,0,0,0,7.481,11.5A18.688,18.688,0,0,0,314,673.381v12.975a1.636,1.636,0,1,0,3.272,0V673.381A15.366,15.366,0,0,1,331.44,658.051Zm10.06-10.519a15.955,15.955,0,1,1,15.888-15.957A15.94,15.94,0,0,1,341.5,647.532Zm24.229-14.915v6.614a2.324,2.324,0,1,1-4.648,0v-6.614A2.324,2.324,0,1,1,365.729,632.617ZM341.5,608.284a20.33,20.33,0,0,1,20.221,18.974,5.541,5.541,0,0,0-1.407.678,19.145,19.145,0,0,0-37.628,0,5.6,5.6,0,0,0-1.408-.678A20.332,20.332,0,0,1,341.5,608.284Zm-24.229,30.948v-6.615a2.324,2.324,0,1,1,4.648,0v6.614A2.324,2.324,0,1,1,317.271,639.232Z" transform="translate(-314 -605)"/>
</svg>
