<svg xmlns="http://www.w3.org/2000/svg" width="69" height="72" viewBox="0 0 69 72">
  <defs>
    <style>
      .cls-1 {
        fill: #26262d;
        fill-rule: evenodd;
      }
    </style>
  </defs>
  <path id="target" class="cls-1" d="M499.589,91.951h-4.544V87.4a1.42,1.42,0,0,0-2.839,0v5.378l-5.934,5.9A32.67,32.67,0,0,0,441.5,99.735a31.958,31.958,0,0,0,0,45.485,32.678,32.678,0,0,0,3,2.635l-7.817,7.746a1.4,1.4,0,0,0,0,1.989,1.427,1.427,0,0,0,2.008,0l8.154-8.08a32.765,32.765,0,0,0,35.285-.049l8.2,8.129a1.426,1.426,0,0,0,2.007,0,1.4,1.4,0,0,0,0-1.989l-7.873-7.8a33.007,33.007,0,0,0,2.933-2.58,31.958,31.958,0,0,0,6.294-36.709,1.424,1.424,0,0,0-1.9-.655,1.4,1.4,0,0,0-.661,1.878,28.856,28.856,0,0,1,2.93,12.743,29.495,29.495,0,1,1-9.8-21.813l-4.982,4.951a22.33,22.33,0,1,0,7.743,16.862,22.166,22.166,0,0,0-5.724-14.884l6-5.962,0.006,0,0-.006,6.9-6.857h5.374a1.406,1.406,0,1,0,0-2.813h0Zm-16.087,25.4a19.453,19.453,0,0,1,.686,5.13,19.66,19.66,0,1,1-6.912-14.866l-5.86,5.822a11.36,11.36,0,1,0,4.523,9.044,11.26,11.26,0,0,0-2.5-7.073l5.852-5.815a19.483,19.483,0,0,1,4.208,7.758h0Zm-19.866,5.808a1.431,1.431,0,0,0,2.007,0l5.779-5.742a8.474,8.474,0,0,1,1.678,5.066,8.636,8.636,0,1,1-3.711-7.03l-5.755,5.719a1.4,1.4,0,0,0,0,1.989h0Zm0,0,27.449-18.368a1.42,1.42,0,1,1-1.419-1.407,1.412,1.412,0,0,1,1.419,1.407h0Zm0,0" transform="translate(-432 -86)"/>
</svg>
