<svg xmlns="http://www.w3.org/2000/svg" width="75" height="73" viewBox="0 0 75 73">
  <defs>
    <style>
      .cls-1 {
        fill: #26262d;
        fill-rule: evenodd;
      }
    </style>
  </defs>
  <path id="tech" class="cls-1" d="M680.023,652.335a10.723,10.723,0,0,0,2.116,2.691c1.549,1.354,2.745,1.106,3.377.782l2.613-1.176a15.262,15.262,0,0,0,3.3,1.925l0.295,2.866c0.1,1.887,2.277,3.054,5.731,3.054s5.642-1.17,5.731-3.063l0.295-2.857a15.262,15.262,0,0,0,3.3-1.925l2.614,1.178c1.671,0.859,3.765-.459,5.492-3.475a10.793,10.793,0,0,0,1.254-3.192c0.388-2.029-.422-2.949-1.017-3.34l-2.327-1.7a15.868,15.868,0,0,0,0-3.822l2.325-1.7c1.583-1.025,1.5-3.512-.232-6.535s-3.823-4.337-5.5-3.474l-2.638,1.189a15.311,15.311,0,0,0-3.267-1.9l-0.3-2.891c-0.089-1.894-2.268-3.065-5.731-3.065s-5.634,1.168-5.731,3.056l-0.3,2.9a15.318,15.318,0,0,0-3.268,1.9l-2.634-1.186c-1.671-.87-3.766.446-5.5,3.471s-1.813,5.5-.24,6.53l2.333,1.7a15.859,15.859,0,0,0,0,3.821l-2.331,1.7C678.209,646.834,678.3,649.32,680.023,652.335Zm5.806-7.772a12.17,12.17,0,0,1,0-4.735,1.821,1.821,0,0,0-.709-1.828l-2.824-2.063a8.273,8.273,0,0,1,2.2-3.843l3.2,1.439a1.789,1.789,0,0,0,1.924-.295,11.75,11.75,0,0,1,4.049-2.358,1.811,1.811,0,0,0,1.217-1.533l0.361-3.509a8.149,8.149,0,0,1,4.4,0l0.361,3.509a1.814,1.814,0,0,0,1.217,1.533,11.754,11.754,0,0,1,4.05,2.358,1.791,1.791,0,0,0,1.924.295l3.2-1.44a8.277,8.277,0,0,1,2.2,3.843L709.779,638a1.826,1.826,0,0,0-.709,1.83,12.17,12.17,0,0,1,0,4.735,1.821,1.821,0,0,0,.709,1.825l2.819,2.059a8.277,8.277,0,0,1-2.2,3.843l-3.172-1.428a1.789,1.789,0,0,0-1.927.3,11.756,11.756,0,0,1-4.073,2.378,1.812,1.812,0,0,0-1.218,1.533l-0.358,3.475a8.123,8.123,0,0,1-4.4,0l-0.357-3.475a1.812,1.812,0,0,0-1.218-1.533,11.77,11.77,0,0,1-4.074-2.378,1.789,1.789,0,0,0-1.927-.3L684.5,652.29a8.283,8.283,0,0,1-2.2-3.844l2.819-2.058A1.822,1.822,0,0,0,685.829,644.563Zm37.426-31.1H701.8V606.93c0-.012-0.042-0.024-0.042-0.036a1.913,1.913,0,0,0-1.88-1.895H675.454a1.879,1.879,0,0,0-1.013.329,1.859,1.859,0,0,0-.833,1.545c0,0.016-.008.051-0.008,0.067v6.526H651.845A1.778,1.778,0,0,0,650,615.2v53.986a1.781,1.781,0,0,0,1.845,1.737H657.6a1.815,1.815,0,0,0,0-3.629h-4V617.1h67.8v50.2H672.8V649.436a5.76,5.76,0,0,0-4-5.569v-8.814l1.977-1.146,0.009,0,2.835-1.648a1.9,1.9,0,0,0,.181-0.115h0a1.809,1.809,0,0,0,.511-0.569,1.846,1.846,0,0,0,.252-0.716,2.125,2.125,0,0,0,.034-0.224v-6.606a2.05,2.05,0,0,0-.033-0.218,1.862,1.862,0,0,0-.756-1.289,1.975,1.975,0,0,0-.185-0.116l-2.441-1.42a1.794,1.794,0,0,0-2.46.664,1.83,1.83,0,0,0,.682,2.479L671,625.039v4.581l-1.991,1.145a0.106,0.106,0,0,0-.019,0l-1.967,1.141-1.971-1.145h-0.044L663,629.62v-4.581l1.61-.913a1.83,1.83,0,0,0,.68-2.479,1.782,1.782,0,0,0-2.449-.664l-2.435,1.42a1.871,1.871,0,0,0-.178.116,1.8,1.8,0,0,0-.508.567,1.872,1.872,0,0,0-.271.724c-0.007.071-.049,0.144-0.049,0.216v6.607c0,0.072.081,0.145,0.089,0.217a1.194,1.194,0,0,0,.311.724h0s-0.038,0-.038,0a1.736,1.736,0,0,0,.49.567,1.612,1.612,0,0,0,.169.114l2.832,1.65h-0.01l1.957,1.146v8.814a5.76,5.76,0,0,0-4,5.569v22.707a5.8,5.8,0,1,0,11.6,0v-1.221h50.455A1.7,1.7,0,0,0,725,669.185V615.2A1.693,1.693,0,0,0,723.255,613.466Zm-25.055,0h-21v-4.838h21v4.838Zm-29,58.677a2.2,2.2,0,1,1-4.4,0V649.436a2.2,2.2,0,1,1,4.4,0v22.707Zm28.252-23.03a6.9,6.9,0,1,0-6.849-6.9A6.885,6.885,0,0,0,697.452,649.113Zm0-10.177a3.275,3.275,0,1,1-3.249,3.274A3.265,3.265,0,0,1,697.452,638.936Z" transform="translate(-650 -605)"/>
</svg>
