<svg xmlns="http://www.w3.org/2000/svg" width="21.907" height="17.75" viewBox="0 0 21.907 17.75">
  <defs>
    <style>
      .cls-1 {
        fill-rule: evenodd;
      }
    </style>
  </defs>
  <path id="twitter" class="cls-1" d="M539.352,156.934a4.5,4.5,0,0,0,1.977-2.477,8.962,8.962,0,0,1-2.865,1.084,4.5,4.5,0,0,0-7.775,3.069,4.365,4.365,0,0,0,.119,1.018,12.754,12.754,0,0,1-9.224-4.679,4.4,4.4,0,0,0-.613,2.248,4.479,4.479,0,0,0,1.977,3.732,4.522,4.522,0,0,1-2.036-.558v0.059a4.477,4.477,0,0,0,3.6,4.39,4.564,4.564,0,0,1-2.03.079,4.488,4.488,0,0,0,4.2,3.108,9.042,9.042,0,0,1-5.58,1.919,9.645,9.645,0,0,1-1.074-.066A12.783,12.783,0,0,0,539.7,159.122v-0.578a9,9,0,0,0,2.248-2.32A9.166,9.166,0,0,1,539.352,156.934Z" transform="translate(-520.031 -154.125)"/>
</svg>
