<svg xmlns="http://www.w3.org/2000/svg" width="33.469" height="24.813" viewBox="0 0 33.469 24.813">
  <defs>
    <style>
      .cls-1 {
        fill: #5a89ff;
        fill-rule: evenodd;
      }
    </style>
  </defs>
  <path id="twitter_blue" data-name="twitter blue" class="cls-1" d="M751.222,236.737a6.416,6.416,0,0,0,3.018-3.462,14.43,14.43,0,0,1-4.374,1.514,7.34,7.34,0,0,0-9.712-.261A6.033,6.033,0,0,0,738,239.079a5.629,5.629,0,0,0,.182,1.424,20.125,20.125,0,0,1-14.082-6.54,5.764,5.764,0,0,0-.936,3.141,6.132,6.132,0,0,0,3.018,5.217,7.4,7.4,0,0,1-3.108-.781v0.083a6.428,6.428,0,0,0,5.5,6.136,7.592,7.592,0,0,1-3.1.11,6.807,6.807,0,0,0,6.406,4.344,14.636,14.636,0,0,1-8.518,2.682,15.516,15.516,0,0,1-1.641-.093,20.742,20.742,0,0,0,10.512,2.812c12.623,0,19.513-9.544,19.513-17.819v-0.808a13.1,13.1,0,0,0,3.431-3.242A15.014,15.014,0,0,1,751.222,236.737Z" transform="translate(-721.719 -232.812)"/>
</svg>
