<svg xmlns="http://www.w3.org/2000/svg" width="92.624" height="92.624" viewBox="0 0 92.624 92.624">
  <defs>
    <style>
      .cls-1 {
        fill: #26262d;
        fill-rule: evenodd;
      }
    </style>
  </defs>
  <path id="up" class="cls-1" d="M652.24,495.786a3.827,3.827,0,0,0,5.37-1l14.6-21.329,15.448,14.9a3.817,3.817,0,0,0,3.063,1.06,3.929,3.929,0,0,0,2.8-1.626l25.62-36.739,0.927,12.29a3.859,3.859,0,1,0,7.7-.586l-1.627-21.612a3.845,3.845,0,0,0-4.14-3.555l-21.612,1.627a3.859,3.859,0,1,0,.586,7.695l12.29-.927-23.484,33.657L674.287,464.7a3.773,3.773,0,0,0-3.063-1.058,3.835,3.835,0,0,0-2.8,1.664l-17.188,25.11a3.862,3.862,0,0,0,1,5.37h0Zm75.728,10.324H646.889V425.031a3.857,3.857,0,1,0-7.714,0v84.936a3.849,3.849,0,0,0,3.857,3.857h84.936A3.857,3.857,0,1,0,727.968,506.11Z" transform="translate(-639.188 -421.188)"/>
</svg>
