<svg xmlns="http://www.w3.org/2000/svg" width="34.876" height="26" viewBox="0 0 34.876 26">
  <defs>
    <style>
      .cls-1 {
        fill: #5a89ff;
        fill-rule: evenodd;
      }
    </style>
  </defs>
  <path id="youtube_blue" data-name="youtube blue" class="cls-1" d="M838.35,250.566a8.526,8.526,0,0,1-1.331,3.67,4.564,4.564,0,0,1-3.358,1.566c-4.691.373-11.734,0.384-11.734,0.384l-0.462,0-0.9,0s-8.716-.087-11.4-0.371a5.38,5.38,0,0,1-3.694-1.58,8.494,8.494,0,0,1-1.333-3.669s-0.335-2.988-.335-5.982v-2.8c0-2.992.335-5.983,0.335-5.983a8.54,8.54,0,0,1,1.333-3.671,4.545,4.545,0,0,1,3.358-1.562c4.689-.377,11.724-0.377,11.724-0.377h0.017s0.245,0,.673,0,0.673,0,.673,0h0.017s7.035,0,11.726.377a4.544,4.544,0,0,1,3.358,1.562,8.527,8.527,0,0,1,1.331,3.671s0.335,2.991.335,5.983v2.8C838.685,247.578,838.35,250.566,838.35,250.566Zm-20.608-1.725,9.113-5.654-9.113-5.653v11.307Z" transform="translate(-803.812 -230.188)"/>
</svg>
