<svg xmlns="http://www.w3.org/2000/svg" width="25.593" height="18.406" viewBox="0 0 25.593 18.406">
  <defs>
    <style>
      .cls-1 {
        fill-rule: evenodd;
      }
    </style>
  </defs>
  <path id="youtube" class="cls-1" d="M581.539,158.64a5.9,5.9,0,0,1-.976,2.6,3.415,3.415,0,0,1-2.464,1.109c-3.441.263-8.608,0.271-8.608,0.271l-0.341,0c-0.41,0-.659,0-0.659,0s-6.394-.061-8.361-0.263a4.02,4.02,0,0,1-2.71-1.118,5.868,5.868,0,0,1-.978-2.6,42.155,42.155,0,0,1-.245-4.234v-1.984a42.208,42.208,0,0,1,.245-4.234,5.894,5.894,0,0,1,.978-2.6,3.4,3.4,0,0,1,2.464-1.106c3.44-.267,8.6-0.267,8.6-0.267H568.5l0.494,0,0.494,0H569.5s5.161,0,8.6.267a3.4,3.4,0,0,1,2.464,1.106,5.9,5.9,0,0,1,.976,2.6,42.038,42.038,0,0,1,.246,4.234v1.985A41.979,41.979,0,0,1,581.539,158.64Zm-15.118-1.221,6.685-4-6.685-4v8Z" transform="translate(-556.188 -144.219)"/>
</svg>
