<?xml version="1.0" encoding="UTF-8"?><!DOCTYPE svg PUBLIC "-//W3C//DTD SVG 1.1//EN" "http://www.w3.org/Graphics/SVG/1.1/DTD/svg11.dtd"><svg xmlns="http://www.w3.org/2000/svg" xmlns:xlink="http://www.w3.org/1999/xlink"><symbol id="case"><path d="M40.922-.015H25.228a4.423 4.423 0 0 0-4.4 4.44v2.04a1.289 1.289 0 1 0 2.577 0v-2.04a1.83 1.83 0 0 1 1.819-1.837h15.694a1.83 1.83 0 0 1 1.818 1.837v2.04a1.289 1.289 0 1 0 2.577 0v-2.04a4.422 4.422 0 0 0-4.395-4.44zm0 0l18.77 10.514H6.3a6.329 6.329 0 0 0-6.291 6.352v11.555a1.3 1.3 0 0 0 .924 1.248l.785.234v27.259a2.86 2.86 0 0 0 2.843 2.871H61.43a2.86 2.86 0 0 0 2.842-2.871V30.08l.778-.227a1.3 1.3 0 0 0 .931-1.25V16.851a6.329 6.329 0 0 0-6.291-6.352zM-7.261 46.901h-6.946a.268.268 0 0 1-.266-.268v-7.015H8a3.527 3.527 0 0 1 3.506 3.541v3.742zm50.188-.268a.267.267 0 0 1-.265.268h-6.947v-3.742a3.528 3.528 0 0 1 3.506-3.541H61.7v7.015zm0-9.618h-3.706a6.121 6.121 0 0 0-6.083 6.144v3.742H14.086v-3.742A6.121 6.121 0 0 0 8 47.529H4.3V30.655l22.75 6.777v4.181a1.3 1.3 0 0 0 1.289 1.3h9.323a1.294 1.294 0 0 0 1.288-1.3v-4.147l22.75-6.634v16.7zm-32.073-7.217v-6.341H17.6v6.341h-6.746zM44.636 17.11l-24.459 7.133v-2.088a1.294 1.294 0 0 0-1.288-1.3H9.566a1.3 1.3 0 0 0-1.289 1.3v2.049l-24.459-7.284v-.069a3.736 3.736 0 0 1 3.714-3.75h5.207v4.5a1.289 1.289 0 1 0 2.577 0v-4.5h37.356v4.5a1.289 1.289 0 1 0 2.577 0v-4.5h5.673a3.737 3.737 0 0 1 3.714 3.75v10.773zm0 0l-9.387-5a1.289 1.289 0 1 1-1.288-1.3 1.3 1.3 0 0 1 1.288 1.3zm0 0H4.702a1.289 1.289 0 1 1-1.288-1.3 1.3 1.3 0 0 1 1.288 1.3zm0 0" fill="#26262d" fill-rule="evenodd"/></symbol><symbol id="certificate"><path d="M16.21 36.953V44l2.21-2.156L20.63 44v-7.045a5.882 5.882 0 0 1-4.42-.002zm2.21-8.2a3.6 3.6 0 1 1-3.68 3.594 3.633 3.633 0 0 1 3.68-3.59zm2.21-18.693H28L19.16 0v8.628a1.455 1.455 0 0 0 1.47 1.436zm-2.95-1.438V0H2.95A2.924 2.924 0 0 0 0 2.876v33.072a2.924 2.924 0 0 0 2.95 2.876h11.79V35.8a4.943 4.943 0 0 1-1.48-3.452 5.162 5.162 0 0 1 10.32 0 4.721 4.721 0 0 1-1.47 3.452v3.019h2.94A2.924 2.924 0 0 0 28 35.943V11.5h-7.37a2.924 2.924 0 0 1-2.95-2.874zM4.42 5.746h10.32v1.438H4.42V5.75zm0 4.314h10.32v1.44H4.42v-1.438zm19.16 14.378H4.42v-1.436h19.16v1.436zm0-4.313H4.42v-1.438h19.16v1.438zm0-4.314H4.42v-1.438h19.16v1.438z" fill="#5a89ff" fill-rule="evenodd"/></symbol><symbol id="chat"><path d="M17.1 71a11.733 11.733 0 0 1-3.63-.492 2.1 2.1 0 0 1-1.31-2.576l3.24-10.86A30.537 30.537 0 0 1 0 30.841C0 13.836 14.58 0 32.5 0S65 13.836 65 30.841c0 16.633-13.61 30.086-31.07 30.8a1.927 1.927 0 0 1-.83-.013l-.1-.023a2.09 2.09 0 0 1 .39-4.124c15.4-.449 27.47-12.151 27.47-26.643 0-14.7-12.72-26.663-28.36-26.663S4.14 16.136 4.14 30.838a26.478 26.478 0 0 0 14.68 23.359 2.084 2.084 0 0 1 1.06 2.348 1.9 1.9 0 0 1-.07.23l-3 10.06c2.13.042 5.8-.479 10.14-3.755a2.061 2.061 0 0 1 2.9.423 2.092 2.092 0 0 1-.42 2.923C24.46 70.178 20.03 71 17.1 71zm15.4-48.637H14.14a1.671 1.671 0 0 1 0-3.341H32.5a1.671 1.671 0 0 1 0 3.339zm0 10.329H14.14a1.671 1.671 0 0 1 0-3.342H32.5a1.671 1.671 0 0 1 0 3.34zm0 10.328H14.14a1.671 1.671 0 0 1 0-3.341H32.5a1.671 1.671 0 0 1 0 3.339zm9.93-17.316a1.59 1.59 0 0 1-.13.655 1.82 1.82 0 0 1-.36.534 1.581 1.581 0 0 1-.52.36 1.638 1.638 0 0 1-.65.127 1.585 1.585 0 0 1-1.18-.478 1.658 1.658 0 0 1-.47-1.2 7.575 7.575 0 0 1 .61-3 7.972 7.972 0 0 1 1.66-2.459 7.686 7.686 0 0 1 2.44-1.661 7.275 7.275 0 0 1 2.96-.607 7.178 7.178 0 0 1 2.96.623 7.982 7.982 0 0 1 4.09 4.136 7.5 7.5 0 0 1 .61 2.97 7.628 7.628 0 0 1-2.27 5.494l-2.48 2.317a3.887 3.887 0 0 0-1.27 2.794 1.668 1.668 0 0 1-2.83 1.19 1.6 1.6 0 0 1-.48-1.19 7.155 7.155 0 0 1 2.27-5.159l2.48-2.332a4.339 4.339 0 0 0 1.27-3.114 4.226 4.226 0 0 0-.35-1.692 4.446 4.446 0 0 0-.94-1.4 4.548 4.548 0 0 0-1.39-.95 4.033 4.033 0 0 0-1.67-.351 4.233 4.233 0 0 0-1.7.342 4.42 4.42 0 0 0-2.32 2.325 4.482 4.482 0 0 0-.34 1.722zm6.6 15.817a2.247 2.247 0 0 1-3.84 1.605 2.308 2.308 0 0 1 0-3.211 2.245 2.245 0 0 1 3.84 1.604z" fill="#26262d" fill-rule="evenodd"/></symbol><symbol id="cross" viewBox="0 0 14.4 17.5"><style>.st0{fill-rule:evenodd;clip-rule:evenodd;fill:none;stroke:#cd2c28;stroke-width:4;stroke-linecap:round;stroke-linejoin:round;stroke-miterlimit:10}</style><path class="st0" d="M2 15.5C2.1 15.2 12.4 2 12.4 2M12.4 15.5C12.3 15.2 2 2 2 2"/></symbol><symbol id="dollar"><path d="M34.87 34.489a.153.153 0 0 1-.021-.014 18.673 18.673 0 0 0-4.862-2.428 34.061 34.061 0 0 0-7.056-1.161c-2.914-.248-5-.482-6.195-.7a5.09 5.09 0 0 1-2.248-1.087 2.126 2.126 0 0 1-.754-1.806v-1.69c0-2.917.59-3.858.843-4.127.3-.318 1.176-.851 3.667-.851h2.729c2.623 0 3.476.543 3.719.776.3.284.793 1.1.793 3.357v.591a3 3 0 0 0 3.249 3.22h7.247a3 3 0 0 0 3.249-3.22v-1.606c0-4.637-1.309-8.381-3.888-11.127a13.533 13.533 0 0 0-9.329-4.137v-5.27a3 3 0 0 0-3.249-3.22h-5.116a3 3 0 0 0-3.248 3.22v5.232h-.013a1.445 1.445 0 1 0 0 2.889h1.471a1.45 1.45 0 0 0 1.457-1.445V3.209a.24.24 0 0 1 .333-.33h5.116a.24.24 0 0 1 .334.33v6.677a1.451 1.451 0 0 0 1.457 1.445h.171c3.646 0 6.421 1.066 8.483 3.258s3.105 5.275 3.105 9.158v1.606a1.1 1.1 0 0 1-.031.3 1.166 1.166 0 0 1-.3.031h-7.247a1.137 1.137 0 0 1-.3-.031 1.166 1.166 0 0 1-.03-.3v-.591c0-2.572-.55-4.349-1.683-5.435-1.117-1.069-3-1.589-5.744-1.589H18.25c-2.778 0-4.675.579-5.8 1.769-1.1 1.162-1.629 3.157-1.629 6.1v1.69a5.033 5.033 0 0 0 1.8 4.025 8.07 8.07 0 0 0 3.535 1.7l.038.008c1.3.235 3.424.475 6.489.736a31.99 31.99 0 0 1 6.415 1.034 15.8 15.8 0 0 1 4.082 2.045c2.589 1.848 3.9 5.318 3.9 10.315v3.209c0 4.031-1.071 7.04-3.276 9.2s-5.179 3.217-9.08 3.217h-.171a1.45 1.45 0 0 0-1.457 1.444v6.508a1.166 1.166 0 0 1-.031.3 1.244 1.244 0 0 1-.3.03H17.65a1.258 1.258 0 0 1-.3-.03 1.166 1.166 0 0 1-.031-.3V64.23a1.45 1.45 0 0 0-1.457-1.444h-.6c-3.948 0-6.912-1.061-9.063-3.243s-3.208-5.19-3.208-9.174v-1.606a1.156 1.156 0 0 1 .031-.3 1.179 1.179 0 0 1 .3-.031h7.248a1.173 1.173 0 0 1 .3.031 1.156 1.156 0 0 1 .031.3v.592c0 2.584.57 4.367 1.742 5.451 1.142 1.058 3 1.572 5.685 1.572h3.41c2.633 0 4.485-.547 5.662-1.674s1.765-3.028 1.765-5.772v-1.263a5.666 5.666 0 0 0-1.743-4.353 8.179 8.179 0 0 0-3.624-1.95l-.039-.01a61.7 61.7 0 0 0-6.189-.788 38.677 38.677 0 0 1-6.428-1.007 15.068 15.068 0 0 1-4.114-1.968l-.02-.014c-2.725-1.735-4.106-5.335-4.106-10.7v-3.127a14.2 14.2 0 0 1 1.753-7.409 1.438 1.438 0 0 0-.5-1.983 1.465 1.465 0 0 0-2 .5 16.994 16.994 0 0 0-2.167 8.895v3.114c0 6.407 1.828 10.823 5.433 13.126a17.987 17.987 0 0 0 4.915 2.335 40.781 40.781 0 0 0 6.958 1.106c2.891.274 4.847.519 5.815.729a5.235 5.235 0 0 1 2.325 1.255 2.88 2.88 0 0 1 .816 2.241v1.267c0 2.482-.55 3.381-.877 3.695-.41.393-1.374.862-3.634.862h-3.41c-2.469 0-3.375-.5-3.7-.8-.305-.282-.816-1.09-.816-3.339v-.591a3 3 0 0 0-3.248-3.22H3.317a3 3 0 0 0-3.248 3.22v1.614c0 4.71 1.359 8.476 4.039 11.194 2.522 2.56 5.98 3.936 10.286 4.1v5.079a3 3 0 0 0 3.248 3.22h5.116a3 3 0 0 0 3.249-3.22v-5.1a14.79 14.79 0 0 0 9.841-4.015C38.6 58.931 40 55.145 40 50.369v-3.211c0-5.987-1.725-10.249-5.127-12.669zM9.643 11.226a1.458 1.458 0 1 1-1.458-1.445 1.452 1.452 0 0 1 1.458 1.445zm0 0" fill="#26262d" fill-rule="evenodd"/></symbol><symbol id="facebook blue"><path data-name="facebook blue" d="M10.208 12.25h6.5v6.6h-6.5V33h-6.5V18.854H-.009v-6.6h4.645V9.689c0-2.434.754-5.5 2.249-7.177a7.212 7.212 0 0 1 5.577-2.519h4.255v5.659h-4.766a1.751 1.751 0 0 0-1.738 1.764v4.838z" fill="#5a89ff" fill-rule="evenodd"/></symbol><symbol id="facebook"><path d="M7.163 8.688h4.565v4.684H7.163v10.036H2.598V13.372H-.011V8.688H3.25v-1.82a8.366 8.366 0 0 1 1.578-5.091A5.041 5.041 0 0 1 8.742-.01h2.986v4.015H8.383a1.236 1.236 0 0 0-1.22 1.251v3.432z" fill="#26262d" fill-rule="evenodd"/></symbol><symbol id="graph"><path d="M55.171 5.681h-18.73a7.095 7.095 0 0 0-13.9 0H3.81A3.822 3.822 0 0 0-.006 9.5v40.564a3.822 3.822 0 0 0 3.816 3.818H21.6l-5.779 17.23a1.425 1.425 0 1 0 2.7.907l6.083-18.137h9.765l6.082 18.137a1.427 1.427 0 0 0 1.35.972 1.407 1.407 0 0 0 .454-.075 1.424 1.424 0 0 0 .9-1.8l-5.779-17.23H55.17a3.822 3.822 0 0 0 3.816-3.818V9.5a3.822 3.822 0 0 0-3.816-3.819zM29.49 2.858a4.255 4.255 0 0 1 4 2.823h-8a4.255 4.255 0 0 1 4-2.823zm26.648 47.206a.969.969 0 0 1-.967.968h-3.722V30.71a1.425 1.425 0 1 0-2.849 0v20.322h-4.382V35.07a1.425 1.425 0 1 0-2.849 0v15.962h-4v-11.3a1.425 1.425 0 1 0-2.849 0v11.3h-3.606V36.111a1.425 1.425 0 1 0-2.849 0v14.921H23.93v-7.844a1.425 1.425 0 1 0-2.849 0v7.844h-3.309v-7.268a1.425 1.425 0 1 0-2.849 0v7.268h-3.814v-5.607a1.425 1.425 0 1 0-2.849 0v5.607H3.81a.969.969 0 0 1-.967-.968V9.5a.968.968 0 0 1 .967-.968h51.361a.969.969 0 0 1 .967.968v40.564zm0 0l-4.695-34.821c0-.02-.006-.038-.008-.058s-.008-.053-.013-.08-.01-.044-.016-.067l-.018-.069-.022-.064-.025-.067-.026-.058c-.009-.019-.021-.046-.034-.069l-.031-.053c-.013-.022-.026-.044-.041-.066l-.04-.055c-.013-.018-.027-.039-.042-.057s-.053-.061-.081-.09l-.013-.015-.014-.012a1.134 1.134 0 0 0-.09-.081l-.054-.04a.636.636 0 0 0-.059-.043c-.02-.014-.041-.026-.062-.038l-.057-.034c-.021-.012-.043-.021-.063-.03s-.042-.021-.064-.03l-.06-.022c-.024-.009-.047-.018-.072-.025l-.059-.015c-.019-.004-.05-.014-.076-.019l-.067-.01c-.023 0-.047-.008-.071-.01a1.088 1.088 0 0 0-.114-.006h-6.179a1.426 1.426 0 0 0 0 2.851h2.714L34.759 28.646l-3.105-3.108a1.426 1.426 0 0 0-2.015 0L19.36 35.824l-3.069-3.071a1.426 1.426 0 0 0-2.015 0l-5.2 5.2a1.425 1.425 0 1 0 2.015 2.016l4.191-4.194 3.068 3.071a1.426 1.426 0 0 0 2.015 0l10.28-10.286 3.105 3.107a1.424 1.424 0 0 0 2.014 0L48.6 18.826v2.715a1.425 1.425 0 1 0 2.849 0v-6.156a1.337 1.337 0 0 0-.006-.142zm0 0l-39.933.141a1.425 1.425 0 1 1-1.424-1.426 1.425 1.425 0 0 1 1.424 1.426zm0 0v5.811a1.425 1.425 0 1 1-1.424-1.426 1.425 1.425 0 0 1 1.424 1.426zm0 0v5.811a1.425 1.425 0 1 1-1.424-1.425 1.425 1.425 0 0 1 1.424 1.425zm0 0" fill="#26262d" fill-rule="evenodd"/></symbol><symbol id="home"><path d="M103.484 77.201c-.192-2.32-1.9-4.124-4.4-6.12a15.2 15.2 0 0 0-8.951-3.025c-3.218 0-7.883 1.167-11.845 6.718a19.086 19.086 0 0 1-11.658 7.092 8.39 8.39 0 0 0 .544-3.17c.031-7.721-6.119-13.523-14.623-13.561l-30.359.025a14.882 14.882 0 0 0-8.018 2.364v-3.952H.003v40.973h14.172v-4.354a11.158 11.158 0 0 1 1.273.8 21.959 21.959 0 0 0 10.076 3h27.89a64.8 64.8 0 0 0 46.627-20.133c1.796-1.997 3.657-4.06 3.443-6.657zM9.426 72.623H4.475v-4.956h4.953v4.956zm86.936 7.913a59.811 59.811 0 0 1-42.952 18.5H25.52c-4.716 0-9.794-3.69-9.84-3.726a2.476 2.476 0 0 0-1.474-.484h-.035V72.997a2.442 2.442 0 0 0 1.53-.487l.541-.408a9.869 9.869 0 0 1 5.933-1.99l30.347-.027c4.842.021 9.719 2.8 9.693 8.587 0 3.34-2.226 3.512-2.345 3.541H37.627a2.477 2.477 0 0 0 0 4.953h24.925a24.819 24.819 0 0 0 19.673-9.388c.021-.029.045-.059.064-.088 2.2-3.107 4.843-4.682 7.841-4.682a10.267 10.267 0 0 1 5.865 1.948c2.481 1.977 2.55 2.625 2.552 2.651.008.497-1.586 2.264-2.185 2.929zM25.187 28.542v32.963h7.149V23.712l21.821-15 21.335 14.985v46.48c1.822-1.508 3.627-3.035 5.37-4.637.6-.551 1.192-1.11 1.779-1.671V28.156l4.269 2.921 4.035-5.9L56.208 1.412 54.201.003 52.156 1.41 36.106 12.4V6.806h-9v11.758l-9.367 6.415 4.039 5.9z" fill="#26262d" fill-rule="evenodd"/></symbol><symbol id="info"><path d="M8 16a8 8 0 1 1 8-8 8 8 0 0 1-8 8zm-.927-2.9H9.2V6.286H7.071V13.1zm1.9-9.314a1.391 1.391 0 0 0-1.7 0 1.006 1.006 0 0 0 0 1.486 1.391 1.391 0 0 0 1.7 0 1.006 1.006 0 0 0 .002-1.49z" fill="#2b2b33" fill-rule="evenodd"/></symbol><symbol id="instagram blue"><path data-name="instagram blue" d="M22.027.012H10.005A9.949 9.949 0 0 0-.014 9.888v11.849a9.949 9.949 0 0 0 10.019 9.875h12.022a9.949 9.949 0 0 0 10.019-9.875V9.888A9.949 9.949 0 0 0 22.027.012zm7.014 21.725a6.971 6.971 0 0 1-7.014 6.912H10.005a6.971 6.971 0 0 1-7.014-6.912V9.888a6.972 6.972 0 0 1 7.014-6.913h12.022a6.972 6.972 0 0 1 7.014 6.913v11.849zM16.55 8.437a7.9 7.9 0 1 0 8.016 7.9 7.957 7.957 0 0 0-8.016-7.9m0 12.836a4.938 4.938 0 1 1 5.009-4.938 4.981 4.981 0 0 1-5.009 4.938M24.566 6.33a1.054 1.054 0 1 1-1.069 1.052 1.061 1.061 0 0 1 1.069-1.052" fill="#5a89ff" fill-rule="evenodd"/></symbol><symbol id="instagram"><path d="M16.137-.011h-8.8A7.329 7.329 0 0 0 0 7.308v8.782a7.329 7.329 0 0 0 7.337 7.318h8.8a7.329 7.329 0 0 0 7.337-7.318V7.308a7.329 7.329 0 0 0-7.337-7.319zm5.136 16.1a5.135 5.135 0 0 1-5.136 5.122h-8.8a5.134 5.134 0 0 1-5.136-5.122V7.307a5.135 5.135 0 0 1 5.136-5.123h8.8a5.135 5.135 0 0 1 5.136 5.123v8.782zm-9.147-9.855a5.855 5.855 0 1 0 5.87 5.854 5.863 5.863 0 0 0-5.87-5.854m0 9.513a3.659 3.659 0 1 1 3.668-3.659 3.668 3.668 0 0 1-3.668 3.659m5.87-11.075a.781.781 0 1 1-.783.781.782.782 0 0 1 .783-.781" fill-rule="evenodd"/></symbol><symbol id="location white"><path data-name="location white" d="M20.93 4.693a11.819 11.819 0 0 0-18.86 0A10.449 10.449 0 0 0 .73 14.739a8.3 8.3 0 0 0 1.67 2.613l8.34 9.315a1.036 1.036 0 0 0 1.52 0l8.34-9.313a8.409 8.409 0 0 0 1.67-2.609 10.458 10.458 0 0 0-1.34-10.052zM11.5 5.6a5.294 5.294 0 1 0 5.57 5.287A5.441 5.441 0 0 0 11.5 5.6zm0 8.685a3.4 3.4 0 1 1 3.58-3.4 3.5 3.5 0 0 1-3.58 3.4z" fill="#fff" fill-rule="evenodd"/></symbol><symbol id="mail blue" viewBox="0 0 25 18.3"><path d="M21.9 0H3.1C1.4 0 0 1.4 0 3.2v11.9c0 1.7 1.4 3.2 3.1 3.2h18.8c1.7 0 3.1-1.4 3.1-3.2V3.2C25 1.4 23.6 0 21.9 0zm-.3 5.4L13 12.5c-.3.2-.7.2-1 0L3.4 5.4c-.3-.3-.4-.8-.1-1.1.3-.3.8-.4 1.1-.1l8.1 6.7 8.1-6.7c.3-.3.8-.2 1.1.1.3.3.2.8-.1 1.1z" fill="#5a89ff"/></symbol><symbol id="mail white"><path data-name="mail white" d="M21.87 0H3.12A3.152 3.152 0 0 0 0 3.176v11.91a3.153 3.153 0 0 0 3.12 3.177h18.75A3.155 3.155 0 0 0 25 15.086V3.176A3.154 3.154 0 0 0 21.87 0zm-.28 5.379l-8.6 7.146a.76.76 0 0 1-.98 0l-8.6-7.146a.809.809 0 0 1-.11-1.117.774.774 0 0 1 1.1-.112l8.1 6.735 8.1-6.735a.773.773 0 0 1 1.1.112.809.809 0 0 1-.11 1.116z" fill="#fff" fill-rule="evenodd"/></symbol><symbol id="phone blue" viewBox="0 0 24 24.4"><path d="M19.9 15.4c-.6-.8-1.8-.9-2.6-.2l-.2.2c-.7.7-1.3 1.3-1.9 2-.1.2-.3.2-.5.1-.4-.2-.9-.4-1.3-.7-1.8-1.2-3.5-2.7-4.8-4.5-.7-.9-1.3-1.8-1.7-2.8-.2-.2-.2-.4 0-.5.6-.6 1.3-1.3 1.9-2 .8-.6.9-1.8.2-2.6-.1-.1-.1-.2-.2-.2L7.3 2.7C6.7 2.1 6.2 1.5 5.7 1 5.1.3 3.9.2 3.1.8c0 .1-.1.2-.2.2-.6.7-1.2 1.3-1.9 2-.6.6-.9 1.3-1 2.2 0 1.3.2 2.7.7 3.9 1 2.6 2.4 5 4.2 7.1 2.3 2.9 5.3 5.2 8.6 6.8 1.5.8 3.1 1.3 4.7 1.4 1.1.1 2.2-.3 3-1.2l1.8-1.8c.8-.7.9-1.9.2-2.7l-.2-.2c-1.1-1-2.1-2-3.1-3.1zm4-4.5C21.9 6 18.1 2.1 13.3 0c-.4-.2-.8 0-1 .4-.2.4 0 .9.4 1.1 4.4 1.9 8 5.5 9.8 10 .1.3.4.5.7.5.1 0 .2 0 .3-.1.4-.2.6-.6.4-1zm-11.6-5c2.7 1.2 4.8 3.3 6 6 .1.3.4.5.7.5.1 0 .2 0 .3-.1.4-.2.6-.6.4-1-1.3-3.1-3.7-5.5-6.8-6.8-.4-.2-.8 0-1 .4-.2.4 0 .8.4 1z" fill="#5a89ff"/></symbol><symbol id="phone white"><path data-name="phone white" d="M19.86 15.421a1.815 1.815 0 0 0-2.77 0c-.65.654-1.29 1.307-1.93 1.971a.374.374 0 0 1-.53.1c-.42-.232-.87-.42-1.27-.675a20.084 20.084 0 0 1-4.84-4.482 11.714 11.714 0 0 1-1.73-2.826.414.414 0 0 1 .09-.52c.65-.637 1.28-1.29 1.92-1.942a1.9 1.9 0 0 0-.01-2.882c-.5-.52-1.01-1.029-1.51-1.549-.53-.531-1.04-1.068-1.57-1.594a1.825 1.825 0 0 0-2.77.006C2.29 1.681 1.66 2.35 1 2.992a3.274 3.274 0 0 0-.99 2.164A9.322 9.322 0 0 0 .71 9.1a23.848 23.848 0 0 0 4.18 7.088 26.028 26.028 0 0 0 8.57 6.822 12.209 12.209 0 0 0 4.74 1.405 3.451 3.451 0 0 0 2.99-1.157c.55-.631 1.18-1.206 1.77-1.809a1.907 1.907 0 0 0 .01-2.866q-1.545-1.588-3.11-3.162zm4.08-4.568A20.29 20.29 0 0 0 13.27.047a.772.772 0 0 0-1.02.45.83.83 0 0 0 .43 1.062 18.684 18.684 0 0 1 9.84 9.964.775.775 0 0 0 .71.482.76.76 0 0 0 .32-.072.839.839 0 0 0 .39-1.08zM12.27 5.906a11.328 11.328 0 0 1 5.97 6.03.759.759 0 0 0 .69.465.683.683 0 0 0 .3-.07.8.8 0 0 0 .38-1.04 12.883 12.883 0 0 0-6.77-6.843.737.737 0 0 0-.98.434.8.8 0 0 0 .41 1.024z" fill="#fff" fill-rule="evenodd"/></symbol><symbol id="plant"><path d="M37.597 53.1v7.831a9.533 9.533 0 0 1-8.15 9.447 6.038 6.038 0 0 1 .885 3.153v.96a1.479 1.479 0 0 1-1.473 1.484H12.123a1.479 1.479 0 0 1-1.474-1.484v-.961a6.034 6.034 0 0 1 .885-3.152 9.534 9.534 0 0 1-8.15-9.448V53.1A4.177 4.177 0 0 1-.009 49v-.149a4.168 4.168 0 0 1 4.148-4.177h14.878V42.6h-3.6a8.14 8.14 0 0 1-8.1-8.16v-1.493a1.479 1.479 0 0 1 1.473-1.484h5.073a8.029 8.029 0 0 1 5.155 1.869V29.8a14.828 14.828 0 1 1 2.947 0v6.182a8.026 8.026 0 0 1 5.155-1.87h8.49a1.479 1.479 0 0 1 1.473 1.484v3.878a8.153 8.153 0 0 1-1.857 5.193h1.617a4.167 4.167 0 0 1 4.148 4.177V49a4.177 4.177 0 0 1-3.394 4.1zM27.341 73.007a3.062 3.062 0 0 0-2.731-2.534h-8.241a3.06 3.06 0 0 0-2.731 2.534h13.7zM13.862 34.43h-3.6v.009a5.18 5.18 0 0 0 5.155 5.192h3.6v-.01a5.179 5.179 0 0 0-5.155-5.191zm18.507-19.487a11.881 11.881 0 1 0-11.881 11.966 11.937 11.937 0 0 0 11.881-11.966zm1.764 22.14h-7.014a5.179 5.179 0 0 0-5.15 5.191v2.4h7.017a5.18 5.18 0 0 0 5.155-5.192v-2.395zm3.908 11.764a1.207 1.207 0 0 0-1.2-1.21h-32.7a1.207 1.207 0 0 0-1.2 1.21V49a1.207 1.207 0 0 0 1.2 1.21h.718a1.479 1.479 0 0 1 1.474 1.484v9.245a6.558 6.558 0 0 0 6.527 6.574h15.265a6.558 6.558 0 0 0 6.528-6.574v-7.761H17.916a1.484 1.484 0 0 1 0-2.968h18.926a1.207 1.207 0 0 0 1.2-1.21v-.149zm-26.367 4.327a1.484 1.484 0 1 1 1.473-1.483 1.479 1.479 0 0 1-1.47 1.483zm7.34-29.949v-.9a3.667 3.667 0 0 1-3.357-3.66 1.474 1.474 0 1 1 2.947 0 .7.7 0 0 0 .7.7h2.165a.915.915 0 0 0 .91-.918v-1.14a.914.914 0 0 0-.91-.917h-1.947a3.876 3.876 0 0 1-3.857-3.884v-1.14a3.881 3.881 0 0 1 3.357-3.851V6.6a1.474 1.474 0 1 1 2.947 0v.9a3.667 3.667 0 0 1 3.357 3.66 1.474 1.474 0 1 1-2.947 0 .7.7 0 0 0-.7-.705h-2.157a.915.915 0 0 0-.91.917v1.139a.914.914 0 0 0 .91.917h1.947a3.875 3.875 0 0 1 3.857 3.885v1.14a3.879 3.879 0 0 1-3.357 3.847v.921a1.476 1.476 0 1 1-2.952.004z" fill="#26262d" fill-rule="evenodd"/></symbol><symbol id="public"><path d="M52.988 69.013H16.573a5.037 5.037 0 0 1-5.015-5.049V21.846H3.322A3.329 3.329 0 0 1 .008 18.51V7.286A7.251 7.251 0 0 1 6.922.005H50.89A7.147 7.147 0 0 1 58 7.11v56.854a5.038 5.038 0 0 1-5.012 5.049zM11.557 7.165a4.447 4.447 0 0 0-1.342-3.2A4.392 4.392 0 0 0 7.133 2.7h-.137a4.546 4.546 0 0 0-4.311 4.586V18.51a.639.639 0 0 0 .636.64h8.236V7.165zm43.769 0a4.457 4.457 0 0 0-4.436-4.467H12.684a7.133 7.133 0 0 1 1.551 4.412v56.854a2.349 2.349 0 0 0 2.338 2.354h36.415a2.349 2.349 0 0 0 2.338-2.354v-56.8zm-5.82 41.737H34.781a1.35 1.35 0 0 1 0-2.7h14.725a1.349 1.349 0 0 1 0 2.698zm0-6.035H21.142a1.35 1.35 0 0 1 0-2.7h28.364a1.35 1.35 0 0 1 0 2.7zm0-5.715H21.142a1.348 1.348 0 0 1 0-2.695h28.364a1.348 1.348 0 0 1 0 2.695zm-.99-12.1l-8.084 4.568a2.912 2.912 0 0 1-2.864 0l-8.084-4.568A2.924 2.924 0 0 1 28 22.505V13.49a2.921 2.921 0 0 1 1.484-2.546l8.084-4.57a2.917 2.917 0 0 1 2.864 0l8.084 4.57A2.921 2.921 0 0 1 50 13.49v9.015a2.924 2.924 0 0 1-1.484 2.547zM47 14.618a2.206 2.206 0 0 0-1.079-1.91l-5.88-3.427a2.062 2.062 0 0 0-2.082 0l-5.88 3.427A2.206 2.206 0 0 0 31 14.618v6.761a2.206 2.206 0 0 0 1.079 1.91l5.88 3.426a2.058 2.058 0 0 0 2.082 0l5.88-3.426A2.206 2.206 0 0 0 47 21.379v-6.761zm-4.864 4.272a4.021 4.021 0 0 1-2.657.809h-1.422v3.136h-2.228v-9.242h3.688a4.3 4.3 0 0 1 1.876.39 2.939 2.939 0 0 1 1.263 1.111 3.027 3.027 0 0 1 .448 1.634 2.676 2.676 0 0 1-.968 2.162zm-1.641-3.184a1.236 1.236 0 0 0-.952-.393h-1.486v2.666h1.46a1.379 1.379 0 0 0 .988-.324 1.2 1.2 0 0 0 .339-.914 1.487 1.487 0 0 0-.344-1.035zm-8.6 43.005a1.348 1.348 0 1 1-1.338 1.348 1.343 1.343 0 0 1 1.336-1.348zm4.46.375a.794.794 0 0 0 .909-.1 3.458 3.458 0 0 1 3.478-.657l2.258.828a.446.446 0 0 0 .437-.153l.3-.324a3.092 3.092 0 0 1 3.222-.885l2.643.827a1.351 1.351 0 0 1 .881 1.688 1.336 1.336 0 0 1-1.676.886l-2.644-.827a.439.439 0 0 0-.463.145l-.3.323a3.1 3.1 0 0 1-3.2.894.965.965 0 0 1-.07-.024l-2.31-.844a.791.791 0 0 0-.8.151 3.469 3.469 0 0 1-3.963.436 1.353 1.353 0 0 1-.529-1.83 1.335 1.335 0 0 1 1.825-.534z" fill="#26262d" fill-rule="evenodd"/></symbol><symbol id="sack"><path d="M98.976 84.676a67.75 67.75 0 0 0-11.35-31.006c-5.38-7.826-12.84-15.051-22.76-22.054v-9.111l7.46-19.37h-4.27a3.617 3.617 0 0 1-2.57-1 9.286 9.286 0 0 0-6.02-2.128h-.01a9.274 9.274 0 0 0-6.01 2.119 3.626 3.626 0 0 1-2.57 1 3.628 3.628 0 0 1-2.58-1 9.253 9.253 0 0 0-6.015-2.128h-.009a9.281 9.281 0 0 0-6.014 2.118 3.612 3.612 0 0 1-2.569 1h-4.23l7.271 19.429v9.076C26.659 38.715 19.083 45.93 13.604 53.647A65.809 65.809 0 0 0 1.843 84.69L.006 99.887h100.8zM39.706 6.847a3.607 3.607 0 0 1 2.568-1 3.588 3.588 0 0 1 2.57 1 9.28 9.28 0 0 0 6.02 2.128h.01a9.311 9.311 0 0 0 6.02-2.118 3.582 3.582 0 0 1 2.56-1h.01a3.62 3.62 0 0 1 2.57 1 12.211 12.211 0 0 0 2.07 1.294l-4.2 10.913H41.689L37.606 8.149a12.461 12.461 0 0 0 2.1-1.302zm19.3 18.085v5.273H42.588v-5.273h16.418zM6.616 94.026l1.042-8.649a60.128 60.128 0 0 1 10.721-28.353c5.246-7.387 12.313-14.063 22.2-20.958h20.427c20.05 14.011 29.68 28.8 32.15 49.311l1.04 8.649H6.616zm49.54-25.305h-6.68v-2.589h6.68v-3.424h-6.62a6.008 6.008 0 0 1 1.84-4.141 6.787 6.787 0 0 1 4.52-1.337 9.613 9.613 0 0 1 3.58.664l.92-5.778a20.916 20.916 0 0 0-4.97-.663q-5.865 0-9.44 2.974a11.365 11.365 0 0 0-3.985 8.281h-3.595v3.424h3.533v2.589h-3.533v3.424h3.533a10.907 10.907 0 0 0 3.609 8.281q3.435 3 9.22 3a25.527 25.527 0 0 0 5.63-.644l-.92-5.775a10.353 10.353 0 0 1-3.77.642q-3.27 0-4.7-1.343a5.777 5.777 0 0 1-1.53-4.156h6.68v-3.424z" fill="#26262d" fill-rule="evenodd"/></symbol><symbol id="share"><path d="M6.922.005H50.89A7.146 7.146 0 0 1 58 7.11v56.854a5.038 5.038 0 0 1-5.015 5.049H16.573a5.037 5.037 0 0 1-5.015-5.049V21.846H3.322A3.329 3.329 0 0 1 .008 18.51V7.286A7.251 7.251 0 0 1 6.922.005zm7.313 7.105v56.854a2.349 2.349 0 0 0 2.338 2.354h36.415a2.349 2.349 0 0 0 2.338-2.354v-56.8a4.457 4.457 0 0 0-4.436-4.467H12.684a7.131 7.131 0 0 1 1.551 4.412zm-11.55 11.4a.638.638 0 0 0 .636.64h8.236V7.165a4.447 4.447 0 0 0-1.342-3.2A4.388 4.388 0 0 0 7.133 2.7h-.137a4.546 4.546 0 0 0-4.311 4.586V18.51zM40.26 7.9a10.657 10.657 0 1 1-10.584 10.657A10.633 10.633 0 0 1 40.26 7.9zm0 18.618a7.961 7.961 0 1 0-7.907-7.961 7.943 7.943 0 0 0 7.907 7.961zm0 0v-6.087L21.142 34.457h28.364a1.35 1.35 0 0 1 0 2.7H21.142a1.35 1.35 0 0 1 0-2.7zm0 0v5.715h28.364a1.35 1.35 0 0 1 0 2.7H21.142a1.35 1.35 0 0 1 0-2.7zm0 0l13.639 6.035h14.725a1.35 1.35 0 0 1 0 2.7H34.781a1.35 1.35 0 0 1 0-2.7zm0 0l-.245 13.415a1.333 1.333 0 0 1 1.817-.534.8.8 0 0 0 .909-.1 3.461 3.461 0 0 1 3.478-.658L43 59.157a.446.446 0 0 0 .437-.153l.3-.323a3.09 3.09 0 0 1 3.222-.886l2.643.828a1.347 1.347 0 0 1-.795 2.574l-2.644-.828a.438.438 0 0 0-.463.145l-.3.323a3.1 3.1 0 0 1-3.2.894l-.07-.023-2.31-.845a.791.791 0 0 0-.8.151 3.469 3.469 0 0 1-3.963.436 1.352 1.352 0 0 1-.529-1.829zm0 0l-3.981.438a1.339 1.339 0 1 0 1.338-1.348 1.343 1.343 0 0 0-1.338 1.348zm0 0" fill="#26262d" fill-rule="evenodd"/></symbol><symbol id="support"><path d="M17.44 53.051a4.009 4.009 0 0 0 3.641 2.348h3.944a4.009 4.009 0 0 0 3.66-2.391h7.659a15.357 15.357 0 0 1 15.307 15.373v12.975a1.636 1.636 0 1 0 3.272 0V68.381a18.64 18.64 0 0 0-18.579-18.658h-7.669a4.009 4.009 0 0 0-3.65-2.37h-3.944a4.009 4.009 0 0 0-3.624 2.31A11.521 11.521 0 0 1 7.315 39.577a5.63 5.63 0 0 0 3.551-3.462 19.11 19.11 0 0 0 33.268 0A5.592 5.592 0 0 0 55 34.231v-6.614a5.626 5.626 0 0 0-4-5.387 23.534 23.534 0 0 0-46.995 0 5.627 5.627 0 0 0-4 5.387v6.614a5.625 5.625 0 0 0 4.027 5.393 14.838 14.838 0 0 0 7.481 11.5A18.688 18.688 0 0 0 0 68.381v12.975a1.636 1.636 0 1 0 3.272 0V68.381a15.366 15.366 0 0 1 14.168-15.33zM27.5 42.532a15.955 15.955 0 1 1 15.888-15.957A15.94 15.94 0 0 1 27.5 42.532zm24.229-14.915v6.614a2.324 2.324 0 1 1-4.648 0v-6.614a2.324 2.324 0 1 1 4.648 0zM27.5 3.284a20.33 20.33 0 0 1 20.221 18.974 5.541 5.541 0 0 0-1.407.678 19.145 19.145 0 0 0-37.628 0 5.6 5.6 0 0 0-1.408-.678A20.332 20.332 0 0 1 27.5 3.284zM3.271 34.232v-6.615a2.324 2.324 0 1 1 4.648 0v6.614a2.324 2.324 0 1 1-4.648.001z" fill="#26262d" fill-rule="evenodd"/></symbol><symbol id="target"><path d="M67.589 5.951h-4.544V1.4a1.42 1.42 0 0 0-2.839 0v5.378l-5.934 5.9A32.67 32.67 0 0 0 9.5 13.735a31.958 31.958 0 0 0 0 45.485 32.678 32.678 0 0 0 3 2.635l-7.817 7.746a1.4 1.4 0 0 0 0 1.989 1.427 1.427 0 0 0 2.008 0l8.154-8.08a32.765 32.765 0 0 0 35.285-.049l8.2 8.129a1.426 1.426 0 0 0 2.007 0 1.4 1.4 0 0 0 0-1.989l-7.873-7.8a33.007 33.007 0 0 0 2.933-2.58 31.958 31.958 0 0 0 6.294-36.709 1.424 1.424 0 0 0-1.9-.655 1.4 1.4 0 0 0-.661 1.878 28.856 28.856 0 0 1 2.93 12.743 29.495 29.495 0 1 1-9.8-21.813l-4.982 4.951a22.33 22.33 0 1 0 7.743 16.862 22.166 22.166 0 0 0-5.724-14.884l6-5.962h.006v-.006l6.9-6.857h5.374a1.407 1.407 0 1 0 0-2.813zm-16.087 25.4a19.453 19.453 0 0 1 .686 5.13 19.66 19.66 0 1 1-6.912-14.866l-5.86 5.822a11.36 11.36 0 1 0 4.523 9.044 11.26 11.26 0 0 0-2.5-7.073l5.852-5.815a19.483 19.483 0 0 1 4.208 7.758zm-19.866 5.808a1.431 1.431 0 0 0 2.007 0l5.779-5.742a8.474 8.474 0 0 1 1.678 5.066 8.636 8.636 0 1 1-3.711-7.03l-5.755 5.719a1.4 1.4 0 0 0 0 1.989zm0 0l27.449-18.368a1.42 1.42 0 1 1-1.419-1.407 1.412 1.412 0 0 1 1.419 1.407zm0 0" fill="#26262d" fill-rule="evenodd"/></symbol><symbol id="tech"><path d="M30.023 47.335a10.723 10.723 0 0 0 2.116 2.691c1.549 1.354 2.745 1.106 3.377.782l2.613-1.176a15.262 15.262 0 0 0 3.3 1.925l.295 2.866c.1 1.887 2.277 3.054 5.731 3.054s5.642-1.17 5.731-3.063l.295-2.857a15.262 15.262 0 0 0 3.3-1.925l2.614 1.178c1.671.859 3.765-.459 5.492-3.475a10.793 10.793 0 0 0 1.254-3.192c.388-2.029-.422-2.949-1.017-3.34l-2.327-1.7a15.868 15.868 0 0 0 0-3.822l2.325-1.7c1.583-1.025 1.5-3.512-.232-6.535s-3.823-4.337-5.5-3.474l-2.638 1.189a15.311 15.311 0 0 0-3.267-1.9l-.3-2.891c-.089-1.894-2.268-3.065-5.731-3.065s-5.634 1.168-5.731 3.056l-.3 2.9a15.318 15.318 0 0 0-3.268 1.9l-2.634-1.186c-1.671-.87-3.766.446-5.5 3.471s-1.813 5.5-.24 6.53l2.333 1.7a15.859 15.859 0 0 0 0 3.821l-2.331 1.7c-1.574 1.037-1.483 3.523.24 6.538zm5.806-7.772a12.17 12.17 0 0 1 0-4.735A1.821 1.821 0 0 0 35.12 33l-2.824-2.063a8.273 8.273 0 0 1 2.2-3.843l3.2 1.439a1.789 1.789 0 0 0 1.924-.295 11.75 11.75 0 0 1 4.049-2.358 1.811 1.811 0 0 0 1.217-1.533l.361-3.509a8.149 8.149 0 0 1 4.4 0l.361 3.509a1.814 1.814 0 0 0 1.217 1.533 11.754 11.754 0 0 1 4.05 2.358 1.791 1.791 0 0 0 1.924.295l3.2-1.44a8.277 8.277 0 0 1 2.2 3.843L59.779 33a1.826 1.826 0 0 0-.709 1.83 12.17 12.17 0 0 1 0 4.735 1.821 1.821 0 0 0 .709 1.825l2.819 2.059a8.277 8.277 0 0 1-2.2 3.843l-3.172-1.428a1.789 1.789 0 0 0-1.927.3 11.756 11.756 0 0 1-4.073 2.378 1.812 1.812 0 0 0-1.218 1.533l-.358 3.475a8.123 8.123 0 0 1-4.4 0l-.357-3.475a1.812 1.812 0 0 0-1.218-1.533 11.77 11.77 0 0 1-4.074-2.378 1.789 1.789 0 0 0-1.927-.3L34.5 47.29a8.283 8.283 0 0 1-2.2-3.844l2.819-2.058a1.822 1.822 0 0 0 .71-1.825zm37.426-31.1H51.8V1.93c0-.012-.042-.024-.042-.036a1.913 1.913 0 0 0-1.88-1.895H25.454a1.879 1.879 0 0 0-1.013.329 1.859 1.859 0 0 0-.833 1.545c0 .016-.008.051-.008.067v6.526H1.845A1.778 1.778 0 0 0 0 10.2v53.986a1.781 1.781 0 0 0 1.845 1.737H7.6a1.815 1.815 0 0 0 0-3.629h-4V12.1h67.8v50.2H22.8V44.436a5.76 5.76 0 0 0-4-5.569v-8.814l1.977-1.146h.009l2.835-1.648a1.9 1.9 0 0 0 .181-.115 1.809 1.809 0 0 0 .511-.569 1.846 1.846 0 0 0 .252-.716 2.125 2.125 0 0 0 .034-.224v-6.606a2.05 2.05 0 0 0-.033-.218 1.862 1.862 0 0 0-.756-1.289 1.975 1.975 0 0 0-.185-.116l-2.441-1.42a1.794 1.794 0 0 0-2.46.664 1.83 1.83 0 0 0 .682 2.479l1.594.91v4.581l-1.991 1.145a.106.106 0 0 0-.019 0l-1.967 1.141-1.971-1.145h-.044L13 24.62v-4.581l1.61-.913a1.83 1.83 0 0 0 .68-2.479 1.782 1.782 0 0 0-2.449-.664l-2.435 1.42a1.871 1.871 0 0 0-.178.116 1.8 1.8 0 0 0-.508.567 1.872 1.872 0 0 0-.271.724c-.007.071-.049.144-.049.216v6.607c0 .072.081.145.089.217a1.194 1.194 0 0 0 .311.724h-.038a1.736 1.736 0 0 0 .49.567 1.612 1.612 0 0 0 .169.114l2.832 1.65h-.01l1.957 1.146v8.814a5.76 5.76 0 0 0-4 5.569v22.707a5.8 5.8 0 1 0 11.6 0V65.92h50.455A1.7 1.7 0 0 0 75 64.185V10.2a1.693 1.693 0 0 0-1.745-1.734zm-25.055 0h-21V3.625h21v4.838zm-29 58.677a2.2 2.2 0 1 1-4.4 0V44.436a2.2 2.2 0 1 1 4.4 0v22.707zm28.252-23.03a6.9 6.9 0 1 0-6.849-6.9 6.885 6.885 0 0 0 6.849 6.903zm0-10.177a3.275 3.275 0 1 1-3.249 3.274 3.265 3.265 0 0 1 3.249-3.271z" fill="#26262d" fill-rule="evenodd"/></symbol><symbol id="twitter blue"><path data-name="twitter blue" d="M29.503 3.925A6.416 6.416 0 0 0 32.521.463a14.43 14.43 0 0 1-4.374 1.514 7.34 7.34 0 0 0-9.712-.261 6.033 6.033 0 0 0-2.154 4.551 5.629 5.629 0 0 0 .182 1.424 20.125 20.125 0 0 1-14.082-6.54 5.764 5.764 0 0 0-.936 3.141 6.132 6.132 0 0 0 3.018 5.217 7.4 7.4 0 0 1-3.108-.781v.083a6.428 6.428 0 0 0 5.5 6.136 7.592 7.592 0 0 1-3.1.11 6.807 6.807 0 0 0 6.406 4.344 14.636 14.636 0 0 1-8.518 2.682 15.516 15.516 0 0 1-1.641-.093 20.742 20.742 0 0 0 10.512 2.812c12.623 0 19.513-9.544 19.513-17.819v-.808a13.1 13.1 0 0 0 3.431-3.242 15.014 15.014 0 0 1-3.955.992z" fill="#5a89ff" fill-rule="evenodd"/></symbol><symbol id="twitter"><path d="M19.321 2.809A4.5 4.5 0 0 0 21.298.332a8.962 8.962 0 0 1-2.865 1.084 4.5 4.5 0 0 0-7.775 3.069 4.365 4.365 0 0 0 .119 1.018A12.754 12.754 0 0 1 1.553.824 4.4 4.4 0 0 0 .94 3.072a4.479 4.479 0 0 0 1.977 3.732 4.522 4.522 0 0 1-2.036-.558v.059a4.477 4.477 0 0 0 3.6 4.39 4.564 4.564 0 0 1-2.03.079 4.488 4.488 0 0 0 4.2 3.108 9.042 9.042 0 0 1-5.58 1.919 9.645 9.645 0 0 1-1.074-.066A12.783 12.783 0 0 0 19.669 4.997v-.578a9 9 0 0 0 2.248-2.32 9.166 9.166 0 0 1-2.596.71z" fill-rule="evenodd"/></symbol><symbol id="up"><path d="M13.052 74.598a3.827 3.827 0 0 0 5.37-1l14.6-21.329 15.448 14.9a3.817 3.817 0 0 0 3.063 1.06 3.929 3.929 0 0 0 2.8-1.626l25.62-36.739.927 12.29a3.861 3.861 0 1 0 7.7-.586l-1.627-21.612a3.845 3.845 0 0 0-4.14-3.555l-21.612 1.627a3.859 3.859 0 1 0 .586 7.695l12.29-.927-23.484 33.657-15.494-14.941a3.773 3.773 0 0 0-3.063-1.058 3.835 3.835 0 0 0-2.8 1.664l-17.188 25.11a3.862 3.862 0 0 0 1 5.37zM88.78 84.922H7.701V3.843a3.857 3.857 0 1 0-7.714 0v84.936a3.849 3.849 0 0 0 3.857 3.857H88.78a3.857 3.857 0 1 0 0-7.714z" fill="#26262d" fill-rule="evenodd"/></symbol><symbol id="youtube blue"><path data-name="youtube blue" d="M34.538 20.378a8.526 8.526 0 0 1-1.331 3.67 4.564 4.564 0 0 1-3.358 1.566c-4.691.373-11.734.384-11.734.384h-1.362s-8.716-.087-11.4-.371a5.38 5.38 0 0 1-3.694-1.58 8.494 8.494 0 0 1-1.333-3.669s-.335-2.988-.335-5.982v-2.8c0-2.992.335-5.983.335-5.983a8.54 8.54 0 0 1 1.333-3.671A4.545 4.545 0 0 1 5.017.38C9.706.003 16.741.003 16.741.003h1.38s7.035 0 11.726.377a4.544 4.544 0 0 1 3.358 1.562 8.527 8.527 0 0 1 1.331 3.671s.335 2.991.335 5.983v2.8c.002 2.994-.333 5.982-.333 5.982zM13.93 18.653l9.113-5.654-9.113-5.653v11.307z" fill="#5a89ff" fill-rule="evenodd"/></symbol><symbol id="youtube"><path d="M25.351 14.421a5.9 5.9 0 0 1-.976 2.6 3.415 3.415 0 0 1-2.464 1.109c-3.441.263-8.608.271-8.608.271h-1s-6.394-.061-8.361-.263a4.02 4.02 0 0 1-2.71-1.118 5.868 5.868 0 0 1-.978-2.6 42.155 42.155 0 0 1-.245-4.234V8.202a42.208 42.208 0 0 1 .245-4.234 5.894 5.894 0 0 1 .978-2.6A3.4 3.4 0 0 1 3.696.262c3.44-.267 8.6-.267 8.6-.267h1.016s5.161 0 8.6.267a3.4 3.4 0 0 1 2.464 1.106 5.9 5.9 0 0 1 .976 2.6 42.038 42.038 0 0 1 .246 4.234v1.985a41.979 41.979 0 0 1-.247 4.234zM10.233 13.2l6.685-4-6.685-4v8z" fill-rule="evenodd"/></symbol></svg>